<!-- Default placeholder SVG for shop items -->
<svg width="200" height="200" viewBox="0 0 200 200" fill="none" xmlns="http://www.w3.org/2000/svg">
  <rect width="200" height="200" fill="#2B2B2B"/>
  <path d="M100 60C108.284 60 115 66.716 115 75C115 83.284 108.284 90 100 90C91.716 90 85 83.284 85 75C85 66.716 91.716 60 100 60Z" fill="#666666"/>
  <path d="M70 140C70 123.431 83.431 110 100 110C116.569 110 130 123.431 130 140H70Z" fill="#666666"/>
  <path d="M170 40H30C24.477 40 20 44.477 20 50V150C20 155.523 24.477 160 30 160H170C175.523 160 180 155.523 180 150V50C180 44.477 175.523 40 170 40ZM30 150V50H170V150H30Z" fill="#666666"/>
</svg>
