<svg width="36" height="28" viewBox="0 0 36 28" fill="none" xmlns="http://www.w3.org/2000/svg">
<g clip-path="url(#clip0_48_357)">
<path d="M30.4864 2.31103C28.1183 1.2157 25.6306 0.445355 23.0591 0C22.7362 0.577758 22.3654 1.3481 22.1143 1.96197C19.3874 1.55273 16.6126 1.55273 13.8857 1.96197C13.5987 1.28792 13.2638 0.637942 12.905 0C10.3336 0.433319 7.83388 1.2157 5.47774 2.32307C0.789365 9.35246 -0.478408 16.2133 0.155479 22.9779C2.90631 25.0362 5.99202 26.601 9.2691 27.6C10.0106 26.5889 10.6565 25.5297 11.2186 24.4103C10.1542 24.0131 9.12558 23.5196 8.14485 22.9298C8.39601 22.7372 8.64717 22.5446 8.88638 22.34C14.6512 25.0843 21.3369 25.0843 27.1136 22.34C27.3528 22.5446 27.6159 22.7372 27.8671 22.9298C26.8864 23.5196 25.8578 24.0131 24.7934 24.4103C25.3555 25.5177 26.0133 26.5889 26.7429 27.588C30.0199 26.5889 33.1056 25.0242 35.8565 22.9659C36.598 15.13 34.5767 8.32935 30.4983 2.299L30.4864 2.31103ZM12.0199 18.8253C10.2379 18.8253 8.79069 17.1883 8.79069 15.1782C8.79069 13.1681 10.214 11.5191 12.0199 11.5191C13.8259 11.5191 15.2731 13.156 15.2611 15.1662C15.2492 17.1763 13.8379 18.8253 12.0199 18.8253ZM23.9801 18.8253C22.198 18.8253 20.7508 17.1883 20.7508 15.1782C20.7508 13.1681 22.1741 11.5191 23.9801 11.5191C25.786 11.5191 27.2332 13.156 27.2093 15.1662C27.1854 17.1763 25.786 18.8253 23.9801 18.8253Z" fill="white"/>
</g>
<defs>
<clipPath id="clip0_48_357">
<rect width="36" height="27.6" fill="white"/>
</clipPath>
</defs>
</svg>
