<svg width="29" height="28" viewBox="0 0 29 28" fill="none" xmlns="http://www.w3.org/2000/svg">
<path d="M20.843 13.6079L20.7252 13.5062C20.3142 13.2012 19.7308 13.235 19.3581 13.6079L15.551 17.4149L15.5505 8.04931L15.5409 7.90684C15.4714 7.39434 15.0321 6.99931 14.5005 6.99931L14.358 7.0089C13.8455 7.07843 13.4505 7.51775 13.4505 8.04931L13.451 17.4177L9.64198 13.607L9.52423 13.5052C9.11323 13.2002 8.5299 13.2341 8.15705 13.6067C7.74692 14.0167 7.7468 14.6815 8.15677 15.0916L13.7567 20.6938L13.8746 20.7955C14.2856 21.1005 14.869 21.0668 15.2418 20.694L20.843 15.0927L20.9446 14.975C21.2497 14.5639 21.2158 13.9807 20.843 13.6079ZM0.5 14C0.5 21.7319 6.76802 28 14.5 28C22.2321 28 28.5 21.7319 28.5 14C28.5 6.26801 22.2321 0 14.5 0C6.76803 0 0.5 6.26801 0.5 14ZM26.4 14C26.4 20.5722 21.0722 25.9 14.5 25.9C7.92782 25.9 2.6 20.5722 2.6 14C2.6 7.42781 7.92782 2.1 14.5 2.1C21.0722 2.1 26.4 7.42781 26.4 14Z" fill="#212121"/>
</svg>
