<svg width="104" height="130" viewBox="0 0 104 130" fill="none" xmlns="http://www.w3.org/2000/svg">
<g opacity="0.2" clip-path="url(#clip0_80_765)">
<path d="M94.0445 73.2821V18.6954C94.0445 8.3869 85.5836 0 75.1842 0C64.7849 0 56.324 8.3869 56.324 18.6954V52.243C55.0588 52.1413 53.7815 52.0784 52.4952 52.0664C50.7741 52.0515 49.071 52.1203 47.3891 52.27V18.6954C47.3891 8.3869 38.9313 0 28.5319 0C18.1325 0 9.67168 8.3869 9.67168 18.6954V73.8299C3.59329 82.2587 0 92.5463 0 103.612C0 103.681 0 103.75 0 103.819C0.042274 114.492 8.8262 123.104 19.594 123.104H27.4116C31.1559 123.457 34.7673 122.861 36.8025 125.774C39.9549 130.287 44.9946 130.829 49.6628 129.057C51.1183 128.506 52.0876 128.051 52.0876 128.051C52.0876 128.051 53.0176 128.488 54.4247 129.027C59.1081 130.823 64.1719 130.305 67.3454 125.78C69.3927 122.858 73.0283 123.451 76.7907 123.101H84.403C95.1708 123.101 103.955 114.489 103.997 103.816C103.997 103.747 103.997 103.678 103.997 103.609C103.997 92.2709 100.301 81.7888 94.0415 73.2792L94.0445 73.2821ZM38.264 112.52L32.5479 118.186L25.5697 111.269L18.5915 118.186L12.8754 112.52L19.8537 105.603L12.8754 98.6853L18.5915 93.0192L25.5697 99.9364L32.5479 93.0192L38.264 98.6853L31.2858 105.603L38.264 112.52ZM39.2423 53.6618C31.2103 55.7032 23.8969 59.6212 17.8185 64.9072V18.6954C17.8185 12.8408 22.6226 8.07561 28.5319 8.07561C34.4412 8.07561 39.2453 12.8378 39.2453 18.6954V53.6618H39.2423ZM56.2546 120.835C54.7025 123.259 52.0876 123.616 52.0876 123.616C52.0876 123.616 49.4726 123.259 47.9206 120.835C46.3685 118.41 49.5723 115.806 52.0876 118.054C54.6029 115.806 57.8066 118.41 56.2546 120.835ZM64.4738 18.6954C64.4738 12.8408 69.278 8.07561 75.1873 8.07561C81.0966 8.07561 85.9007 12.8378 85.9007 18.6954V64.5271C79.8193 59.3399 72.518 55.5236 64.4769 53.563V18.6954H64.4738ZM94.3615 106.27C94.0233 113.57 88.0597 119.482 80.6919 119.82C72.2432 120.206 65.2891 113.31 65.6756 104.935C66.0138 97.6347 71.9775 91.7232 79.3452 91.3849C87.794 90.9988 94.748 97.8951 94.3615 106.27Z" fill="white"/>
<path d="M80.0183 97.8531C75.7064 97.8531 72.2007 101.328 72.2007 105.602C72.2007 109.877 75.7094 113.352 80.0183 113.352C84.3273 113.352 87.836 109.877 87.836 105.602C87.836 101.328 84.3303 97.8531 80.0183 97.8531Z" fill="white"/>
</g>
<defs>
<clipPath id="clip0_80_765">
<rect width="104" height="130" fill="white"/>
</clipPath>
</defs>
</svg>
