<svg width="16" height="16" viewBox="0 0 16 16" fill="none" xmlns="http://www.w3.org/2000/svg">
<path d="M8 11.2941C6.23529 11.2941 4.70588 9.88235 4.70588 8C4.70588 6.2353 6.11765 4.70588 8 4.70588C9.76471 4.70588 11.2941 6.11765 11.2941 8C11.2941 9.76471 9.76471 11.2941 8 11.2941Z" fill="white"/>
<path fill-rule="evenodd" clip-rule="evenodd" d="M12 0H4C3.05882 0.117648 2.58824 0.235294 2.23529 0.352942C1.76471 0.470589 1.41177 0.705883 1.05882 1.05882C0.779546 1.3381 0.647593 1.61738 0.488102 1.95495C0.446067 2.04391 0.402005 2.13717 0.352942 2.23529C0.334742 2.28989 0.313726 2.34731 0.291202 2.40885C0.168125 2.7451 0 3.20442 0 4V12C0.117648 12.9412 0.235294 13.4118 0.352942 13.7647C0.470589 14.2353 0.705883 14.5882 1.05882 14.9412C1.3381 15.2205 1.61738 15.3524 1.95495 15.5119C2.04399 15.554 2.13708 15.598 2.23529 15.6471C2.28989 15.6653 2.34731 15.6863 2.40885 15.7088C2.7451 15.8319 3.20442 16 4 16H12C12.9412 15.8824 13.4118 15.7647 13.7647 15.6471C14.2353 15.5294 14.5882 15.2941 14.9412 14.9412C15.2205 14.6619 15.3524 14.3826 15.5119 14.0451C15.554 13.956 15.598 13.8629 15.6471 13.7647C15.6653 13.7101 15.6863 13.6527 15.7088 13.5912C15.8319 13.2549 16 12.7956 16 12V4C15.8824 3.05882 15.7647 2.58824 15.6471 2.23529C15.5294 1.76471 15.2941 1.41177 14.9412 1.05882C14.6619 0.779546 14.3826 0.647593 14.0451 0.488102C13.9562 0.446099 13.8628 0.401966 13.7647 0.352942C13.7101 0.334742 13.6527 0.313726 13.5912 0.291203C13.2549 0.168126 12.7956 0 12 0ZM8 2.94118C5.17647 2.94118 2.94118 5.17647 2.94118 8C2.94118 10.8235 5.17647 13.0588 8 13.0588C10.8235 13.0588 13.0588 10.8235 13.0588 8C13.0588 5.17647 10.8235 2.94118 8 2.94118ZM14.3529 2.82353C14.3529 3.47328 13.8262 4 13.1765 4C12.5267 4 12 3.47328 12 2.82353C12 2.17378 12.5267 1.64706 13.1765 1.64706C13.8262 1.64706 14.3529 2.17378 14.3529 2.82353Z" fill="white"/>
</svg>
