<svg width="185" height="68" viewBox="0 0 185 68" fill="none" xmlns="http://www.w3.org/2000/svg">
<g clip-path="url(#clip0_81_2213)">
<path d="M182.394 3.30749C180.955 1.68346 178.997 0.789486 176.879 0.789486C176.869 0.789486 176.858 0.789486 176.848 0.789486H162.96C162.96 0.789486 162.949 0.789486 162.945 0.789486C161.603 0.795557 160.295 1.14616 159.1 1.76542C158.408 1.14161 157.503 0.789486 156.561 0.789486H133.359C132.868 0.789486 132.398 0.886624 131.964 1.05813C131.524 0.883589 131.048 0.789486 130.564 0.789486H121.259C120.767 0.789486 120.297 0.886624 119.861 1.05965C119.412 0.874482 118.927 0.777344 118.431 0.777344H109.126C108.273 0.777344 107.473 1.06269 106.829 1.55141C106.19 1.06572 105.395 0.777344 104.533 0.777344H95.2273C94.7325 0.777344 94.2559 0.876 93.8158 1.05206C93.371 0.874482 92.8914 0.777344 92.3997 0.777344H83.0941C82.2427 0.777344 81.4413 1.06117 80.7977 1.55141C80.1421 1.05206 79.3361 0.777344 78.5013 0.777344H69.1958C68.7147 0.777344 68.2518 0.869928 67.8222 1.03688C67.3957 0.874482 66.9389 0.78645 66.4699 0.78645H57.1644C56.3129 0.78645 55.513 1.07028 54.868 1.56052C54.2153 1.0642 53.4109 0.78645 52.5715 0.78645H43.266C42.1338 0.78645 41.091 1.29035 40.3853 2.11299C39.1999 1.25696 37.7398 0.783415 36.1628 0.777344H22.2721C22.263 0.777344 22.2554 0.777344 22.2463 0.777344C17.9904 0.777344 13.7027 4.36235 12.2638 9.12818C8.05348 23.0554 4.19527 36.0688 0.467599 48.9168C-0.476461 52.1801 0.0213715 55.1443 1.8336 57.0506C3.37112 58.6686 5.61592 59.2772 7.99125 58.7217C9.07494 58.4728 10.1662 58.2269 11.259 57.9871C10.746 59.7022 10.2391 61.4052 9.73973 63.0884C9.24038 64.7716 9.95829 66.5762 11.4776 67.455C12.071 67.7981 12.7252 67.965 13.3763 67.965C14.3902 67.965 15.392 67.5583 16.1296 66.7842C20.2686 62.4266 24.6155 58.0797 29.049 53.8618C29.3571 53.5689 29.6105 53.2273 29.8033 52.854C30.799 53.4322 31.957 53.7358 33.1925 53.7358C33.6053 53.7358 34.0258 53.7024 34.4523 53.6341C39.2333 52.8858 44.0978 52.2195 48.9228 51.6504C50.565 51.4515 52.1982 50.7883 53.6552 49.8078C54.3565 50.4635 55.2808 50.8308 56.2446 50.8308C56.3675 50.8308 56.4905 50.8247 56.6134 50.8126C59.8372 50.4984 63.111 50.2206 66.3454 49.9884C67.2439 49.9231 68.0681 49.5452 68.6919 48.9487C69.3992 49.4648 70.2689 49.7243 71.1538 49.6712C74.3897 49.4784 77.6711 49.3251 80.9085 49.2143C81.4307 49.1961 81.93 49.0717 82.3823 48.8592C82.8513 49.0428 83.3567 49.1369 83.8728 49.1233C87.1102 49.0368 90.3947 48.9912 93.6367 48.9882C94.5413 48.9882 95.3882 48.6649 96.0499 48.117C96.7011 48.6664 97.5389 49.0018 98.4556 49.011C101.696 49.0474 104.979 49.1248 108.216 49.2432C108.264 49.2447 108.309 49.2462 108.356 49.2462C108.825 49.2462 109.277 49.1567 109.698 48.9973C110.156 49.2189 110.66 49.3494 111.181 49.3722C114.42 49.5149 117.7 49.7015 120.931 49.9262C121.02 49.9322 121.109 49.9353 121.197 49.9353C121.62 49.9353 122.031 49.8639 122.417 49.7319C122.86 49.9596 123.349 50.1007 123.857 50.1402C131.924 50.7625 140.072 51.6504 148.07 52.7796C148.25 52.8054 148.429 52.8175 148.605 52.8175C149.418 52.8175 150.188 52.5535 150.819 52.0981C151.936 52.9648 153.264 53.543 154.714 53.7768C159.505 54.5387 164.341 55.4023 169.078 56.3418C169.627 56.4526 170.18 56.5073 170.728 56.5073C172.417 56.5073 174.067 55.9867 175.497 54.9849C177.5 53.581 178.866 51.3271 179.246 48.806C180.129 42.9929 181.009 36.9537 181.864 30.8507C182.23 28.2219 181.583 25.6037 180.09 23.6276C181.73 23.3862 183.067 22.084 183.297 20.3749C183.706 17.3105 184.121 14.1369 184.532 10.9404C184.901 8.03841 184.122 5.2548 182.395 3.30597L182.394 3.30749ZM149.181 35.5027C149.136 35.7486 149.09 35.996 149.045 36.2418C146.191 35.914 143.317 35.6104 140.448 35.3327C140.5 35.0868 140.551 34.8409 140.604 34.5951C142.688 34.7529 144.775 34.9229 146.841 35.1005C147.941 35.1946 148.983 34.8075 149.743 34.1048C149.471 34.5176 149.276 34.9882 149.181 35.5012V35.5027ZM149.069 18.5916C147.357 18.4883 145.636 18.3897 143.919 18.2971C143.978 17.9966 144.036 17.6976 144.095 17.3971C146.835 17.476 149.588 17.5625 152.326 17.6536C152.187 18.4838 152.045 19.3125 151.904 20.1397C151.88 20.1063 151.856 20.0714 151.828 20.038C151.158 19.1835 150.154 18.6568 149.069 18.5916ZM150.339 33.4021C150.605 32.9968 150.799 32.5354 150.895 32.033C150.988 31.5443 151.082 31.0541 151.174 30.5638C151.399 31.2392 151.704 31.8858 152.088 32.4823C151.429 32.6295 150.827 32.9513 150.339 33.4021Z" fill="white"/>
<path d="M169.186 60.455H170.455V64.169H170.999V60.455H172.274V59.9966H169.186V60.455Z" fill="white"/>
<path d="M175.938 59.9966L175.196 62.0152C175.011 62.5419 174.862 62.9988 174.756 63.4207H174.738C174.633 62.9881 174.49 62.5298 174.317 62.0152L173.605 59.9966H172.918L172.626 64.169H173.141L173.252 62.3795C173.288 61.7542 173.32 61.0545 173.332 60.5354H173.344C173.463 61.0302 173.63 61.569 173.827 62.1579L174.502 64.1447H174.911L175.647 62.12C175.858 61.5447 176.031 61.0241 176.174 60.5354H176.192C176.186 61.056 176.222 61.7542 176.254 62.337L176.359 64.169H176.885L176.626 59.9966H175.938Z" fill="white"/>
<path d="M22.3463 34.3902C21.3506 34.5116 20.3535 34.6361 19.3593 34.762C20.5068 30.9736 21.6466 27.2262 22.7804 23.5198C26.9209 23.195 31.066 22.8975 35.2156 22.6304C32.3485 31.8858 29.4192 41.3674 26.4337 51.1116C22.1065 55.2278 17.752 59.5656 13.3793 64.1691C14.5024 60.3898 15.621 56.65 16.732 52.9511C13.525 53.6023 10.327 54.2929 7.13661 55.0259C4.48505 55.6497 3.1327 53.3716 4.11623 49.9717C8.11558 36.1872 12.0482 22.9643 15.9003 10.2256C16.8489 7.08527 19.7099 4.55968 22.2674 4.57182H36.1657C38.7217 4.58093 40.1013 6.88492 39.221 9.72014C38.3513 12.522 37.4756 15.3435 36.5953 18.1878C33.4489 18.3396 30.304 18.5035 27.1607 18.6811C27.4901 17.6096 27.8194 16.5411 28.1473 15.4756C28.378 14.7243 28.035 14.1308 27.3823 14.1551C26.628 14.1839 25.8752 14.2128 25.1223 14.2431C24.4697 14.2689 23.7442 14.9155 23.5089 15.6835C20.8908 24.2362 18.2286 32.9999 15.5284 42.0003C15.2856 42.8078 15.6332 43.3785 16.301 43.2677C17.4757 43.0734 18.652 42.8837 19.8283 42.697C20.1501 41.63 22.0306 35.4405 22.3509 34.3917L22.3463 34.3902Z" fill="black"/>
<path d="M52.5699 4.58252C49.1807 15.5971 45.6777 26.8666 42.0699 38.4655C41.8453 39.1895 42.211 39.7222 42.8834 39.6494C43.6605 39.5659 44.4376 39.4839 45.2163 39.4035C45.8901 39.3337 46.6232 38.6947 46.8448 37.9844C50.3964 26.5737 53.8388 15.465 57.1642 4.58252C60.2666 4.58252 63.3674 4.58252 66.4698 4.58252C62.7831 16.8948 58.934 29.4317 54.9331 42.3131C54.0816 45.0587 51.1644 47.5555 48.4689 47.8818C43.5907 48.4571 38.7232 49.1234 33.8678 49.8838C31.1828 50.3148 29.7576 48.2081 30.6835 45.1984C35.0107 31.1665 39.2104 17.6673 43.2674 4.58252C46.3698 4.58252 49.4706 4.58252 52.5729 4.58252H52.5699Z" fill="black"/>
<path d="M78.5012 4.57178C78.4678 10.0054 78.436 15.4361 78.4071 20.8667C80.0038 15.4103 81.5656 9.98115 83.094 4.57178H92.3996C88.7417 18.1134 84.8668 31.6733 80.7794 45.4214C77.4949 45.5337 74.2104 45.687 70.929 45.8828C71.0064 40.4112 71.0853 34.9365 71.1658 29.4589C69.5008 34.9942 67.8024 40.5721 66.0721 46.2015C62.7937 46.4383 59.5168 46.7145 56.2445 47.0348C60.7614 32.5081 65.0825 18.4109 69.1942 4.57178H78.4997H78.5012Z" fill="black"/>
<path d="M104.533 4.57178C104.704 9.97964 104.877 15.3875 105.052 20.7969C106.444 15.4057 107.8 10.0009 109.124 4.57178H118.43C115.283 18.3957 111.926 31.9647 108.354 45.4517C105.07 45.3318 101.784 45.2544 98.4965 45.2165C98.369 39.8253 98.2445 34.4357 98.1216 29.046C96.6584 34.425 95.1619 39.8041 93.6305 45.1937C90.3445 45.1983 87.057 45.2438 83.771 45.3303C87.8037 31.6429 91.6224 18.1134 95.2241 4.57178H104.53H104.533Z" fill="black"/>
<path d="M130.564 4.58252C127.644 18.7586 124.525 32.5553 121.195 46.1424C117.915 45.9148 114.634 45.7281 111.349 45.5839C114.864 32.0863 118.165 18.4763 121.259 4.58252C124.361 4.58252 127.463 4.58252 130.564 4.58252Z" fill="black"/>
<path d="M156.564 4.58233C156.057 7.73173 155.542 10.8523 155.022 13.9486C150.345 13.7846 145.665 13.6389 140.982 13.513C140.443 16.3118 139.899 19.0938 139.346 21.8577C142.514 22.0141 145.678 22.1886 148.841 22.3783C148.29 25.3805 147.733 28.3614 147.167 31.3196C143.971 31.0449 140.773 30.7944 137.57 30.5683C137.003 33.3003 136.427 36.0156 135.843 38.7188C140.674 39.1407 145.499 39.637 150.314 40.2077C149.749 43.1674 149.178 46.1058 148.598 49.023C140.477 47.8771 132.32 46.9892 124.147 46.3578C127.422 32.7281 130.488 18.8586 133.357 4.58081C141.092 4.58081 148.826 4.58081 156.562 4.58081L156.564 4.58233Z" fill="black"/>
<path d="M157.456 9.89305C157.93 6.99712 160.402 4.59295 162.96 4.58233C167.592 4.58233 172.226 4.58233 176.858 4.58233C179.416 4.56867 181.176 7.23541 180.766 10.4622C180.36 13.6298 179.95 16.7656 179.534 19.8725C176.4 19.6463 173.262 19.4338 170.124 19.232C170.265 18.2697 170.406 17.3059 170.546 16.3391C170.687 15.3677 170.128 14.542 169.306 14.5071C168.759 14.4828 168.213 14.4601 167.666 14.4373C166.844 14.4039 166.053 15.1567 165.909 16.1068C165.62 18.0041 165.33 19.8907 165.038 21.7682C164.89 22.7077 165.449 23.5273 166.279 23.5941C168.909 23.8035 171.538 24.0236 174.164 24.2558C176.759 24.4729 178.535 27.2322 178.104 30.3285C177.253 36.4087 176.383 42.3751 175.494 48.2368C175.044 51.2223 172.494 53.1605 169.828 52.6232C165.004 51.667 160.164 50.8018 155.31 50.0308C152.627 49.5967 150.863 47.062 151.388 44.3315C151.903 41.6359 152.411 38.9221 152.914 36.1886C156.121 36.5407 159.323 36.9232 162.52 37.333C162.366 38.2437 162.213 39.1529 162.06 40.059C161.905 40.9666 162.469 41.8059 163.313 41.9304C163.875 42.0124 164.435 42.0958 164.997 42.1793C165.84 42.3068 166.654 41.6602 166.804 40.7344C167.103 38.8903 167.401 37.0371 167.695 35.1732C167.842 34.2383 167.279 33.3883 166.443 33.2897C163.79 32.9755 161.134 32.6795 158.475 32.4002C155.843 32.1149 154.1 29.6257 154.598 26.8133C155.574 21.2567 156.527 15.6196 157.456 9.89305Z" fill="black"/>
</g>
<defs>
<clipPath id="clip0_81_2213">
<rect width="184.62" height="67.1861" fill="white" transform="translate(0 0.777344)"/>
</clipPath>
</defs>
</svg>
