<?xml version="1.0" encoding="UTF-8"?>
<svg id="_圖層_1" data-name="圖層_1" xmlns="http://www.w3.org/2000/svg" viewBox="0 0 406.22 96.89">
  <defs>
    <style>
      .cls-1 {
        stroke-width: 2.5px;
      }

      .cls-1, .cls-2, .cls-3 {
        fill: none;
        stroke-miterlimit: 10;
      }

      .cls-1, .cls-3 {
        stroke: #fff;
      }

      .cls-4 {
        fill: #a5864c;
      }

      .cls-5 {
        fill: #fff;
      }

      .cls-2 {
        stroke: #000;
        stroke-width: 1.18px;
      }

      .cls-3 {
        stroke-width: 1.89px;
      }
    </style>
  </defs>
  <path d="M19.26,93.22h92.71V4.08H19.26c-7.46,0-13.5,6.04-13.5,13.5v62.14c0,7.46,6.04,13.5,13.5,13.5Z"/>
  <path class="cls-4" d="M388.77,4.47H113.67v88h275.1c7.45,0,13.49-6.04,13.49-13.49V17.96c0-7.45-6.04-13.49-13.49-13.49Z"/>
  <path class="cls-5" d="M100.72,46.32h0s-20.33-22.23-20.33-22.23c-1.02-.96-1.63-1.25-3.03-1.25h-35.42c-1.4,0-2.01.29-3.03,1.25l-23.37,25.29c-.44.42-.65.9-.61,1.38.04.48.32.91.79,1.23l3.86,2.35c1.05.7,2.1.15,3.02-.73l21.32-22.22c1.03-.96,1.64-1.25,3.05-1.25h25.35c1.41,0,2.02.29,3.05,1.25,0,0,8.59,9.17,8.6,9.18l.05.06h0c.13.17.21.39.21.62,0,.54-.44.99-.98,1h0s-.02,0-.02,0c0,0,0,0,0,0h0s0,0,0,0l-38.84-.03h0s-3.67,0-3.67,0c-1.4,0-2.01.29-3.03,1.25l-11.65,12.42c-.41.38-.61.84-.56,1.29.05.45.34.85.82,1.14l31.4,18.7c.52.36,1.15.58,1.83.58.72,0,1.38-.24,1.92-.64h.04s34.55-20.41,34.55-20.41c.52-.27.87-.82.87-1.44,0-.89-.72-1.62-1.61-1.63h0s-26.95,0-26.95,0h0s-1.28,0-1.28,0c-1.4,0-2.01.29-3.03,1.25l-2.81,3.42c-.13.2-.17.42-.17.68,0,.7.56,1.26,1.26,1.26h8.26c1.06.01,1.68.3,1.84.87.16.57-.22,1.14-1.12,1.7l-9.78,5.82h-.04c-.54.43-1.22.68-1.97.68-.63,0-1.21-.18-1.71-.5h-.02s-19.17-11.46-19.17-11.46v-.03c-.6-.29-1.01-.91-1.01-1.62,0-.54.24-1.03.62-1.36l3.12-3.43c1.03-.96,1.8-1.25,3.2-1.25h54.42s.16-.01.24-.01c1.06,0,1.93-.87,1.93-1.93,0-.46-.16-.88-.43-1.21Z"/>
  <rect class="cls-1" x="4.85" y="4.47" width="397.42" height="88" rx="13.49" ry="13.49"/>
  <line class="cls-3" x1="112.75" y1="4.67" x2="112.75" y2="92.16"/>
  <g>
    <path d="M142.36,34.42h-3.16l.91-5.43h-7.44l-.91,5.43h-3.16l1.75-10.48c.19-1.22.56-1.99,1.66-2.85l4.97-3.89h2.75l3.66,3.89c.81.86.91,1.63.72,2.85l-1.75,10.48ZM140.71,22.96l-2.81-3.15c-.19.24-3.81,3.15-3.81,3.15-.44.36-.47.51-.56,1.13l-.41,2.28h7.44l.37-2.28c.09-.62.13-.77-.22-1.13Z"/>
    <path d="M169.23,23.56c-.34,2.29-2.22,3.68-4.78,3.68h-5.87l-1.13,7.18h-3.12l2.81-17.22h8.75c2.25,0,4.06,1.84,3.72,4.01l-.37,2.34ZM165.67,19.91h-5.87l-.75,4.57h5.81c.56,0,1.19-.5,1.28-1.07l.44-2.41c.09-.59-.34-1.1-.91-1.1Z"/>
    <path d="M184.85,19.97h-8.62l-.75,4.45h6.69l-.47,2.82h-6.69l-.72,4.42h8.62l-.47,2.76h-11.75l2.87-17.22h11.75l-.47,2.76Z"/>
    <path d="M199.57,34.42h-3.19l.87-5.22-6.06-7.18-2.06,12.41h-3.19l2.87-17.22h2.69l6.47,7.75,1.28-7.75h3.19l-2.88,17.22Z"/>
    <path d="M219.5,19.97h-5.5l-2.41,14.46h-3.34l2.41-14.46h-5.47l.47-2.76h14.31l-.47,2.76Z"/>
    <path d="M234.25,34.42h-3.16l.91-5.43h-7.44l-.91,5.43h-3.16l1.75-10.48c.19-1.22.56-1.99,1.66-2.85l4.97-3.89h2.75l3.66,3.89c.81.86.91,1.63.72,2.85l-1.75,10.48ZM232.6,22.96l-2.81-3.15c-.19.24-3.81,3.15-3.81,3.15-.44.36-.47.51-.56,1.13l-.41,2.28h7.44l.37-2.28c.09-.62.13-.77-.22-1.13Z"/>
    <path d="M254.19,22.43h-3.19l.25-1.43c.09-.59-.37-1.1-.94-1.1h-5.16c-.56,0-1.19.51-1.28,1.1l-1.59,9.53c-.09.59.34,1.1.91,1.1h5.19c.56,0,1.19-.51,1.28-1.1l.56-3.35h-3.72l.47-2.76h6.84l-.97,6.2c-.34,2.32-2.16,3.8-4.72,3.8h-4.94c-2.56,0-4.47-1.69-4.09-4.01l1.59-9.5c.37-2.31,2.37-3.71,4.91-3.71h5.03c2.37,0,4.12,1.87,3.78,4.01l-.22,1.22Z"/>
    <path d="M271.12,30.56c-.41,2.41-2.16,3.86-4.78,3.86h-5.47c-2.56,0-4.44-1.69-4.06-4.01l1.59-9.38c.41-2.34,2.25-3.83,4.94-3.83h5.56c2.37,0,4.12,1.9,3.78,4.01l-1.56,9.35ZM268.65,19.97h-5.87c-.56,0-1.19.51-1.28,1.1l-1.56,9.5c-.13.59.34,1.1.91,1.1h5.87c.56,0,1.19-.51,1.28-1.1l1.59-9.5c.09-.59-.34-1.1-.94-1.1Z"/>
    <path d="M288.31,34.42h-3.19l.87-5.22-6.06-7.18-2.06,12.41h-3.19l2.87-17.22h2.69l6.47,7.75,1.28-7.75h3.19l-2.88,17.22Z"/>
    <path d="M315.92,22.43h-3.19l.25-1.43c.09-.59-.37-1.1-.94-1.1h-5.16c-.56,0-1.19.51-1.28,1.1l-1.59,9.53c-.09.59.34,1.1.91,1.1h5.19c.56,0,1.19-.51,1.28-1.1l.56-3.35h-3.72l.47-2.76h6.84l-.97,6.2c-.34,2.32-2.16,3.8-4.72,3.8h-4.94c-2.56,0-4.47-1.69-4.09-4.01l1.59-9.5c.37-2.31,2.37-3.71,4.91-3.71h5.03c2.37,0,4.12,1.87,3.78,4.01l-.22,1.22Z"/>
    <path d="M331.64,34.42h-3.16l.91-5.43h-7.44l-.91,5.43h-3.16l1.75-10.48c.19-1.22.56-1.99,1.66-2.85l4.97-3.89h2.75l3.66,3.89c.81.86.91,1.63.72,2.85l-1.75,10.48ZM329.98,22.96l-2.81-3.15c-.19.24-3.81,3.15-3.81,3.15-.44.36-.47.51-.56,1.13l-.41,2.28h7.44l.37-2.28c.09-.62.13-.77-.22-1.13Z"/>
    <path d="M350.76,34.42h-3.19l2.03-12.23-3.91,3.56h-1.94l-2.72-3.56-2.03,12.23h-3.19l2.87-17.22h2.59l4.03,5.49c.22-.36,5.72-5.49,5.72-5.49h2.59l-2.87,17.22Z"/>
    <path d="M369.07,19.97h-8.62l-.75,4.45h6.69l-.47,2.82h-6.69l-.72,4.42h8.62l-.47,2.76h-11.75l2.87-17.22h11.75l-.47,2.76Z"/>
    <path d="M385.32,22.34h-3.12l.22-1.28c.09-.59-.34-1.1-.94-1.1h-4.87c-.56,0-1.19.51-1.28,1.1l-.37,2.26c-.28,1.75,3.53,1.13,5.81,1.19,2.41.09,4.06,1.69,3.72,4.13l-.28,1.96c-.34,2.38-2.31,3.89-4.88,3.89h-4.66c-2.66,0-4.53-1.69-4.16-4.01l.19-1.1h3.12l-.22,1.25c-.09.59.34,1.1.91,1.1h5.28c.56,0,1.16-.51,1.28-1.1l.34-2.23c.31-1.75-3.5-1.16-5.78-1.22-2.53-.09-4.12-1.9-3.75-4.13l.34-2.02c.41-2.4,2.28-3.83,4.91-3.83h4.59c2.34,0,4.12,1.93,3.78,4.01l-.19,1.13Z"/>
  </g>
  <g>
    <path d="M146.7,56.79h-14.18l-1.23,6.93h10.99l-.77,4.39h-10.99l-1.18,6.89h14.18l-.77,4.3h-19.31l4.73-26.81h19.31l-.77,4.3Z"/>
    <path d="M174.49,58.55c-.41,2.36-1.59,3.37-3.29,4.53l-4.62,3.05,3.7,2.73c1.54,1.2,1.95,2.36,1.54,4.67l-1.03,5.78h-5.29l.92-5.41c.26-1.39.21-1.53-.51-2.08l-4.73-3.47-5.19,3.47c-.92.6-1.08.79-1.34,2.26l-.92,5.22h-5.24l.92-5.41c.41-2.31.98-3.51,3.18-4.99l4.88-3.19-3.7-2.77c-1.39-.97-2.05-2.13-1.59-4.53l1.03-5.92h5.24l-1.03,5.78c-.15.92-.15,1.11.46,1.57l4.98,3.65,5.09-3.47c.87-.6,1.13-.93,1.28-1.76l1.03-5.78h5.29l-1.08,6.06Z"/>
    <path d="M202.08,62.39c-.57,3.56-3.65,5.73-7.86,5.73h-9.66l-1.85,11.19h-5.14l4.62-26.81h14.38c3.7,0,6.68,2.87,6.11,6.24l-.62,3.65ZM196.22,56.7h-9.66l-1.23,7.12h9.55c.92,0,1.95-.79,2.11-1.66l.72-3.74c.15-.92-.57-1.71-1.49-1.71Z"/>
    <path d="M227.76,56.79h-14.18l-1.23,6.93h10.99l-.77,4.39h-10.99l-1.18,6.89h14.18l-.77,4.3h-19.31l4.73-26.81h19.31l-.77,4.3Z"/>
    <path d="M254.99,61.65c-.36,1.94-1.54,3.42-2.98,4.21,1.39.93,1.85,2.17,1.54,3.88l-1.69,9.57h-5.24l1.59-9.2c.26-1.53-.21-1.99-1.8-1.99h-9.81l-1.95,11.19h-5.09l4.73-26.81h15c3.9,0,6.73,3.1,6.16,6.24l-.46,2.91ZM248.83,56.56h-10.17l-1.23,7.12h9.61c1.9,0,2.41-.46,2.67-2.08l.57-3.19c.21-.97-.57-1.85-1.44-1.85Z"/>
    <path d="M276.62,56.61h-4.32l-3.24,18.58h4.32l-.72,4.11h-13.87l.72-4.11h4.37l3.24-18.58h-4.37l.77-4.11h13.87l-.77,4.11Z"/>
    <path d="M302.2,56.79h-14.18l-1.23,6.93h10.99l-.77,4.39h-10.99l-1.18,6.89h14.18l-.77,4.3h-19.31l4.73-26.81h19.31l-.77,4.3Z"/>
    <path d="M326.39,79.31h-5.24l1.44-8.14-9.97-11.19-3.39,19.32h-5.24l4.73-26.81h4.42l10.63,12.07,2.11-12.07h5.24l-4.73,26.81Z"/>
    <path d="M359.01,60.63h-5.24l.36-2.03c.15-.92-.56-1.71-1.49-1.71h-8.42c-.92,0-1.9.79-2.11,1.71l-2.57,14.66c-.15.92.56,1.71,1.49,1.71h8.42c.92,0,1.95-.79,2.11-1.71l.36-2.08h5.24l-.36,2.08c-.62,3.6-3.44,6.06-7.55,6.06h-8.17c-4.21,0-7.4-2.64-6.78-6.24l2.62-14.56c.67-3.6,3.6-6.01,7.71-6.01h8.63c3.6,0,6.63,3.24,6.06,6.52l-.31,1.62Z"/>
    <path d="M384.54,56.79h-14.18l-1.23,6.93h10.99l-.77,4.39h-10.99l-1.18,6.89h14.18l-.77,4.3h-19.31l4.73-26.81h19.31l-.77,4.3Z"/>
  </g>
  <line class="cls-2" x1="127.28" y1="43.23" x2="385.56" y2="43.23"/>
</svg>