<svg width="50" height="50" viewBox="0 0 50 50" fill="none" xmlns="http://www.w3.org/2000/svg">
<path d="M24.9733 6.88208C15.4687 6.88208 7.67363 14.2109 6.92084 23.5358L16.6343 27.5523C17.4648 26.9841 18.4458 26.6732 19.5095 26.6732H19.796L24.1234 20.4032V20.3255C24.1234 16.5712 27.1782 13.4872 30.9616 13.4872C34.745 13.4872 37.7999 16.5421 37.7999 20.3255C37.7999 24.1089 34.745 27.1638 30.9616 27.1638H30.8062L24.643 31.5688V31.8019C24.643 34.6237 22.3361 36.9307 19.5143 36.9307C17.0277 36.9307 14.9539 35.1677 14.4876 32.8121L7.54736 29.937C9.69888 37.5523 16.6877 43.1181 24.9781 43.1181C34.9733 43.1181 43.084 35.0122 43.084 25.0122C43.084 14.988 34.9781 6.88208 24.9781 6.88208" fill="white"/>
<path d="M18.2662 34.3614L16.0369 33.4532C16.4255 34.2837 17.1248 34.9539 18.033 35.3425C20 36.1438 22.2535 35.2405 23.0598 33.2686C23.4483 32.3119 23.4483 31.2725 23.0598 30.3157C22.6712 29.359 21.9184 28.6305 20.9859 28.2176C20.0534 27.8291 19.0432 27.8291 18.1642 28.1642L20.4711 29.121C21.9233 29.7184 22.5935 31.3745 22.001 32.8267C21.3793 34.2788 19.7232 34.9782 18.271 34.3565" fill="white"/>
<path d="M35.4881 20.3256C35.4881 17.8147 33.4434 15.7651 30.9277 15.7651C28.4119 15.7651 26.3672 17.8098 26.3672 20.3256C26.3672 22.8414 28.4119 24.8861 30.9277 24.8861C33.4434 24.8861 35.4881 22.8414 35.4881 20.3256ZM27.5377 20.3256C27.5377 18.4363 29.0675 16.9065 30.9568 16.9065C32.8461 16.9065 34.3759 18.4363 34.3759 20.3256C34.3759 22.2149 32.8461 23.7447 30.9568 23.7447C29.0675 23.7447 27.5377 22.2149 27.5377 20.3256Z" fill="white"/>
</svg>
