<svg width="34" height="29" viewBox="0 0 34 29" fill="none" xmlns="http://www.w3.org/2000/svg">
<g clip-path="url(#clip0_48_352)">
<path d="M2.08086 12.2456C2.08086 12.2456 17.1135 6.06608 22.3346 3.89694C24.3271 3.02676 31.112 0.252279 31.112 0.252279C31.112 0.252279 34.2396 -0.958404 33.9748 1.99264C33.8865 3.20332 33.1929 7.46593 32.4993 12.069C31.4525 18.5891 30.3301 25.7144 30.3301 25.7144C30.3301 25.7144 30.1536 27.7196 28.678 28.0601C27.2025 28.4133 24.7685 26.8495 24.3271 26.4963C23.974 26.2315 17.8071 22.322 15.5497 20.4177C14.9444 19.9006 14.2507 18.8539 15.638 17.6306C18.7656 14.7679 22.4985 11.1989 24.7685 8.94145C25.8153 7.89471 26.8494 5.46074 22.5111 8.42439C16.3442 12.687 10.253 16.6848 10.253 16.6848C10.253 16.6848 8.86572 17.555 6.25519 16.7731C3.64466 15.9912 0.605338 14.9444 0.605338 14.9444C0.605338 14.9444 -1.47552 13.6455 2.08086 12.2456Z" fill="white"/>
</g>
<defs>
<clipPath id="clip0_48_352">
<rect width="34" height="28.1105" fill="white"/>
</clipPath>
</defs>
</svg>
