<svg width="14" height="16" viewBox="0 0 14 16" fill="none" xmlns="http://www.w3.org/2000/svg">
<path fill-rule="evenodd" clip-rule="evenodd" d="M10.1182 0C10.1182 0.237755 10.1404 0.471901 10.1813 0.698509C10.3781 1.74606 10.998 2.64503 11.8592 3.20592C12.4605 3.59972 13.1732 3.82634 13.9415 3.82634L13.9413 4.43926V6.57531C12.516 6.57531 11.1946 6.11841 10.1182 5.34569V10.9366C10.1182 13.7265 7.84662 16 5.05911 16C3.9827 16 2.98047 15.6581 2.16016 15.0824C0.853668 14.1648 0 12.6491 0 10.9366C0 8.143 2.26788 5.87325 5.05539 5.8769C5.28925 5.8769 5.51566 5.8955 5.73837 5.92525V6.5753L5.73022 6.57921L5.73834 6.57903V8.73367C5.52307 8.66679 5.29294 8.62594 5.05539 8.62594C3.78226 8.62594 2.74667 9.66241 2.74667 10.9366C2.74667 11.8245 3.25146 12.5934 3.98639 12.9835C3.99326 12.9929 4.00021 13.0023 4.0072 13.0116L4.01953 13.0278C4.01108 13.0115 4.00131 12.9955 3.99014 12.9798C4.31305 13.1507 4.67679 13.2473 5.06284 13.2473C6.30621 13.2473 7.3233 12.2554 7.3678 11.0221L7.37152 0H10.1182Z" fill="white"/>
</svg>
