<svg width="48" height="48" viewBox="0 0 48 48" fill="none" xmlns="http://www.w3.org/2000/svg">
<path d="M29 4C32.5898 4 35.5 6.91014 35.5 10.5C35.5 11.7891 35.1248 12.9906 34.4774 14.0011L39.5 14C40.8808 14 42 15.1193 42 16.5V23.5C42 24.7088 41.142 25.7172 40.0018 25.9496L40 37.5C40 40.966 37.287 43.7984 33.8688 43.9898L33.5 44H14.5C11.0339 44 8.2015 41.287 8.01028 37.8688L8 37.5L8.0001 25.95C6.85894 25.7184 6 24.7096 6 23.5V16.5C6 15.1193 7.11928 14 8.5 14L13.5225 14.0011C12.8753 12.9906 12.5 11.7891 12.5 10.5C12.5 6.91014 15.4101 4 19 4C21.011 4 22.8088 4.91332 24.0012 6.34782C25.1912 4.91332 26.989 4 29 4ZM22.5 25.998H11V37.5C11 39.3364 12.4142 40.8424 14.2129 40.9884L14.5 41H22.5V25.998ZM37 25.998H25.5V41H33.5C35.3364 41 36.8424 39.5858 36.9884 37.787L37 37.5V25.998ZM22.5 17H9V23L22.5 22.998V17ZM39 23V17H25.5V22.998L39 23ZM29 7C27.067 7 25.5 8.567 25.5 10.5V13.998H29.048L29.287 13.9884C31.0858 13.8424 32.5 12.3363 32.5 10.5C32.5 8.567 30.933 7 29 7ZM19 7C17.067 7 15.5 8.567 15.5 10.5C15.5 12.3363 16.9142 13.8424 18.7129 13.9884L18.952 13.998H22.5V10.5L22.4884 10.2129C22.3424 8.41422 20.8364 7 19 7Z" fill="white"/>
</svg>
