<svg width="12" height="8" viewBox="0 0 12 8" fill="none" xmlns="http://www.w3.org/2000/svg">
<path d="M6.399 7.57309L11.973 0.436638C11.9876 0.417991 11.9968 0.39558 11.9993 0.371981C12.0018 0.348381 11.9976 0.32455 11.9872 0.303224C11.9768 0.281898 11.9606 0.263942 11.9404 0.251418C11.9202 0.238895 11.897 0.232311 11.8732 0.232423L10.6495 0.232423C10.572 0.232423 10.4975 0.268834 10.4501 0.32899L6.00007 6.02802L1.55008 0.32899C1.50258 0.267251 1.42818 0.232423 1.35061 0.232423L0.126901 0.232423C0.0208359 0.232423 -0.0377378 0.354319 0.0271683 0.436638L5.60113 7.57309C5.64845 7.63374 5.70897 7.68281 5.7781 7.71656C5.84723 7.75031 5.92314 7.76785 6.00007 7.76785C6.07699 7.76785 6.15291 7.75031 6.22203 7.71656C6.29116 7.68281 6.35168 7.63374 6.399 7.57309Z" fill="#1CBBBC"/>
</svg>
