<svg width="33" height="32" viewBox="0 0 33 32" fill="none" xmlns="http://www.w3.org/2000/svg">
<path d="M7.83674 6.16941L7.83301 9.00002V23.0056C7.83301 25.3988 9.7731 27.339 12.1663 27.339L23.6547 27.3394C23.2427 28.5043 22.1317 29.339 20.8255 29.339H12.1663C8.66854 29.339 5.83301 26.5035 5.83301 23.0056V9.00002C5.83301 7.69241 6.66961 6.58018 7.83674 6.16941ZM18.0042 2.66669C18.8002 2.66669 19.5635 2.98299 20.1262 3.54598L26.2841 9.70741C26.8462 10.27 27.1621 11.0328 27.1621 11.8281V23.0056C27.1621 24.6626 25.819 26.0056 24.1621 26.0056H12.1696C10.5127 26.0056 9.16955 24.6626 9.16955 23.0056V5.66669C9.16955 4.00983 10.5127 2.66669 12.1696 2.66669H18.0042ZM17.8322 4.66669H12.1696C11.6173 4.66669 11.1696 5.11441 11.1696 5.66669V23.0056C11.1696 23.5579 11.6173 24.0056 12.1696 24.0056H24.1621C24.7143 24.0056 25.1621 23.5579 25.1621 23.0056L25.1615 12.004L20.833 12.0052C19.2451 12.0052 17.9455 10.7717 17.8399 9.21061L17.833 9.00521L17.8322 4.66669ZM19.8322 6.08135L19.833 9.00521C19.833 9.51147 20.2093 9.92986 20.6973 9.99607L20.833 10.0052L23.7535 10.004L19.8322 6.08135Z" fill="white"/>
</svg>
