<svg width="12" height="12" viewBox="0 0 12 12" fill="none" xmlns="http://www.w3.org/2000/svg">
<g clip-path="url(#clip0_42_376)">
<path d="M1.13791 11.9939C0.843769 12.0113 0.554316 11.9124 0.330957 11.718C-0.109668 11.2694 -0.109668 10.545 0.330957 10.0967L9.98088 0.334188C10.4393 -0.0997101 11.1586 -0.0755257 11.5875 0.38801C11.9754 0.807445 11.9979 1.45189 11.6405 1.89788L1.93338 11.718C1.71283 11.9095 1.42807 12.0082 1.13768 11.9939H1.13791Z" fill="white"/>
<path d="M10.7763 11.9939C10.4782 11.9927 10.1922 11.873 9.98058 11.6605L0.330421 1.89783C-0.0778607 1.41556 -0.0223139 0.689554 0.454405 0.276521C0.88003 -0.0921736 1.50745 -0.0921736 1.93308 0.276521L11.64 10.039C12.0982 10.4731 12.1218 11.2008 11.6929 11.6643C11.6758 11.6828 11.6582 11.7006 11.64 11.7179C11.4023 11.927 11.0894 12.0269 10.776 11.9939H10.7763Z" fill="white"/>
</g>
<defs>
<clipPath id="clip0_42_376">
<rect width="12" height="12" fill="white"/>
</clipPath>
</defs>
</svg>
