<svg width="12" height="8" viewBox="0 0 12 8" fill="none" xmlns="http://www.w3.org/2000/svg">
<path d="M5.601 0.4274L0.0270356 7.56385C0.0123546 7.5825 0.00323097 7.60491 0.000712468 7.62851C-0.00180603 7.65211 0.00238272 7.67594 0.0127978 7.69726C0.0232128 7.71859 0.0394318 7.73655 0.0595918 7.74907C0.0797519 7.76159 0.103036 7.76818 0.126769 7.76806H1.35048C1.42805 7.76806 1.50245 7.73165 1.54994 7.6715L5.99993 1.97247L10.4499 7.6715C10.4974 7.73324 10.5718 7.76806 10.6494 7.76806H11.8731C11.9792 7.76806 12.0377 7.64617 11.9728 7.56385L6.39887 0.4274C6.35155 0.366745 6.29103 0.317677 6.2219 0.283928C6.15277 0.250179 6.07686 0.232637 5.99993 0.232637C5.92301 0.232637 5.84709 0.250179 5.77797 0.283928C5.70884 0.317677 5.64832 0.366745 5.601 0.4274Z" fill="#1CBBBC"/>
</svg>
