<svg width="20" height="20" viewBox="0 0 20 20" fill="none" xmlns="http://www.w3.org/2000/svg">
<path d="M10 0C15.5228 0 20 4.47715 20 10C20 15.5228 15.5228 20 10 20C4.47715 20 0 15.5228 0 10C0 4.47715 4.47715 0 10 0ZM10 1.5C5.30558 1.5 1.5 5.30558 1.5 10C1.5 14.6944 5.30558 18.5 10 18.5C14.6944 18.5 18.5 14.6944 18.5 10C18.5 5.30558 14.6944 1.5 10 1.5ZM5.46967 7.96967C5.76256 7.67678 6.23744 7.67678 6.53033 7.96967L10 11.4393L13.4697 7.96967C13.7626 7.67678 14.2374 7.67678 14.5303 7.96967C14.8232 8.2626 14.8232 8.7374 14.5303 9.0303L10.5303 13.0303C10.2374 13.3232 9.7626 13.3232 9.4697 13.0303L5.46967 9.0303C5.17678 8.7374 5.17678 8.2626 5.46967 7.96967Z" fill="white"/>
</svg>
