<svg width="20" height="20" viewBox="0 0 20 20" fill="none" xmlns="http://www.w3.org/2000/svg">
<path d="M2.12475 11.1717C1.89825 10.8609 1.785 10.7055 1.70704 10.4048C1.65332 10.1976 1.65332 9.80305 1.70704 9.59585C1.785 9.29519 1.89825 9.13979 2.12475 8.82899C3.36593 7.12589 6.08559 4.16699 10.0001 4.16699C13.9146 4.16699 16.6342 7.12589 17.8754 8.82899C18.1019 9.13979 18.2152 9.29519 18.2931 9.59585C18.3468 9.80305 18.3468 10.1976 18.2931 10.4048C18.2152 10.7055 18.1019 10.8609 17.8754 11.1717C16.6342 12.8748 13.9146 15.8337 10.0001 15.8337C6.08559 15.8337 3.36593 12.8748 2.12475 11.1717Z" stroke="#D1D5DB" stroke-width="1.5" stroke-linecap="round" stroke-linejoin="round"/>
<path d="M9.99992 11.6663C10.9204 11.6663 11.6666 10.9201 11.6666 9.99967C11.6666 9.0792 10.9204 8.33301 9.99992 8.33301C9.07944 8.33301 8.33325 9.0792 8.33325 9.99967C8.33325 10.9201 9.07944 11.6663 9.99992 11.6663Z" stroke="#D1D5DB" stroke-width="1.5" stroke-linecap="round" stroke-linejoin="round"/>
<path d="M17.5 2.5L2.5 17.5" stroke="#D1D5DB" stroke-width="1.5" stroke-linecap="round" stroke-linejoin="round"/>
</svg>
