<svg width="19" height="16" viewBox="0 0 19 16" fill="none" xmlns="http://www.w3.org/2000/svg">
<path d="M16.0313 14C15.9533 14.0001 15.8761 13.9872 15.8041 13.962C15.732 13.9369 15.6666 13.9 15.6116 13.8534L2.54912 2.85342C2.44247 2.75889 2.38389 2.63301 2.38587 2.50263C2.38786 2.37225 2.45024 2.24768 2.55973 2.15548C2.66922 2.06328 2.81715 2.01074 2.97197 2.00907C3.1268 2.0074 3.27628 2.05673 3.38853 2.14654L16.451 13.1465C16.534 13.2165 16.5905 13.3055 16.6134 13.4025C16.6363 13.4995 16.6245 13.6 16.5796 13.6913C16.5347 13.7826 16.4586 13.8607 16.3611 13.9156C16.2635 13.9706 16.1487 13.9999 16.0313 14V14Z" fill="#BDBDBD"/>
<path d="M9.20309 9.87021L7.2812 8.25176C7.27018 8.24257 7.25603 8.23651 7.24071 8.23443C7.2254 8.23236 7.2097 8.23438 7.19582 8.24021C7.18194 8.24603 7.17058 8.25538 7.16333 8.26692C7.15608 8.27847 7.1533 8.29164 7.1554 8.30458C7.23299 8.72446 7.46711 9.1127 7.82392 9.41317C8.18074 9.71365 8.64177 9.9108 9.14038 9.97614C9.15575 9.97791 9.17138 9.97557 9.18509 9.96946C9.1988 9.96336 9.2099 9.95379 9.21682 9.9421C9.22374 9.93041 9.22613 9.91719 9.22367 9.9043C9.22121 9.8914 9.21401 9.87948 9.20309 9.87021Z" fill="#BDBDBD"/>
<path d="M9.79688 6.12962L11.7217 7.74993C11.7327 7.75926 11.7469 7.76543 11.7623 7.76758C11.7777 7.76972 11.7935 7.76773 11.8075 7.76188C11.8214 7.75603 11.8329 7.74663 11.8401 7.735C11.8474 7.72338 11.8501 7.71012 11.8479 7.69712C11.7705 7.27666 11.5362 6.88786 11.179 6.58701C10.8217 6.28615 10.36 6.08885 9.86071 6.02368C9.84524 6.02167 9.82942 6.02383 9.81551 6.02984C9.80159 6.03586 9.79028 6.04542 9.7832 6.05717C9.77612 6.06892 9.77363 6.08225 9.77609 6.09526C9.77855 6.10827 9.78582 6.1203 9.79688 6.12962V6.12962Z" fill="#BDBDBD"/>
<path d="M18.2208 8.54249C18.3436 8.38011 18.4086 8.19145 18.4079 7.99891C18.4073 7.80637 18.341 7.61803 18.2171 7.45624C17.2351 6.1775 15.9612 5.09125 14.5332 4.31469C12.9512 3.45469 11.2071 3 9.48819 3C8.58202 3.00105 7.68201 3.12547 6.823 3.36844C6.79895 3.37517 6.77736 3.38698 6.76027 3.40273C6.74317 3.41848 6.73115 3.43765 6.72535 3.45842C6.71955 3.47919 6.72015 3.50086 6.72711 3.52138C6.73407 3.54189 6.74715 3.56057 6.7651 3.57562L8.51815 5.05187C8.53636 5.06724 8.55901 5.07834 8.58387 5.0841C8.60872 5.08985 8.63493 5.09005 8.65991 5.08469C9.25412 4.96274 9.87561 4.97168 10.4645 5.11063C11.0535 5.24959 11.59 5.51388 12.0225 5.87806C12.4549 6.24225 12.7688 6.69406 12.9338 7.18999C13.0988 7.68593 13.1094 8.20929 12.9646 8.70968C12.9583 8.73067 12.9586 8.75268 12.9654 8.77355C12.9722 8.79442 12.9854 8.81344 13.0036 8.82874L15.5251 10.9537C15.5514 10.9759 15.5865 10.9889 15.6236 10.9903C15.6607 10.9917 15.6971 10.9813 15.7255 10.9612C16.6962 10.2645 17.5373 9.44923 18.2208 8.54249Z" fill="#BDBDBD"/>
<path d="M9.50004 11C8.96075 11 8.42849 10.8969 7.94339 10.6985C7.45829 10.5001 7.03301 10.2115 6.69962 9.85454C6.36624 9.49758 6.13344 9.08153 6.01879 8.63777C5.90413 8.19401 5.91061 7.73412 6.03774 7.29278C6.04404 7.27179 6.04377 7.24978 6.03694 7.22891C6.03011 7.20804 6.01696 7.18902 5.99877 7.17371L3.51838 5.08403C3.49208 5.06185 3.45685 5.04881 3.41967 5.04748C3.38248 5.04614 3.34606 5.05662 3.31762 5.07684C2.41252 5.72715 1.57348 6.5184 0.80643 7.44309C0.672163 7.60537 0.598217 7.7976 0.593988 7.99536C0.589759 8.19312 0.655439 8.38747 0.78268 8.55371C1.76274 9.84528 3.02372 10.9331 4.42979 11.699C6.01399 12.5625 7.71582 13 9.48817 13C10.4035 12.9979 11.3129 12.8761 12.1838 12.639C12.2081 12.6325 12.2299 12.6208 12.2473 12.6051C12.2646 12.5894 12.2769 12.5702 12.2829 12.5494C12.2889 12.5286 12.2884 12.5068 12.2815 12.4861C12.2746 12.4655 12.2616 12.4467 12.2435 12.4315L10.482 10.9484C10.4638 10.9331 10.4412 10.922 10.4164 10.9163C10.3916 10.9105 10.3655 10.9103 10.3406 10.9156C10.0654 10.9717 9.78321 11.0001 9.50004 11V11Z" fill="#BDBDBD"/>
</svg>
