<svg width="19" height="14" viewBox="0 0 19 14" fill="none" xmlns="http://www.w3.org/2000/svg">
<path d="M1.79126 8.17166C1.56475 7.86086 1.4515 7.70546 1.37355 7.40481C1.31982 7.1976 1.31982 6.80305 1.37355 6.59585C1.4515 6.29519 1.56475 6.13979 1.79126 5.82899C3.03244 4.12589 5.7521 1.16699 9.66659 1.16699C13.5811 1.16699 16.3007 4.12589 17.5419 5.82899C17.7684 6.13979 17.8817 6.29519 17.9596 6.59585C18.0133 6.80305 18.0133 7.1976 17.9596 7.40481C17.8817 7.70546 17.7684 7.86086 17.5419 8.17166C16.3007 9.87476 13.5811 12.8337 9.66659 12.8337C5.7521 12.8337 3.03244 9.87476 1.79126 8.17166Z" stroke="#D1D5DB" stroke-width="1.5" stroke-linecap="round" stroke-linejoin="round"/>
<path d="M9.66593 8.66634C10.5864 8.66634 11.3326 7.92015 11.3326 6.99967C11.3326 6.0792 10.5864 5.33301 9.66593 5.33301C8.74546 5.33301 7.99927 6.0792 7.99927 6.99967C7.99927 7.92015 8.74546 8.66634 9.66593 8.66634Z" stroke="#D1D5DB" stroke-width="1.5" stroke-linecap="round" stroke-linejoin="round"/>
</svg>
