<svg width="93" height="39" viewBox="0 0 93 39" fill="none" xmlns="http://www.w3.org/2000/svg">
<path d="M55.4401 1.42271C54.5227 0.505304 53.3032 0.000179341 52.0058 0.000179341L4.85661 -3.32004e-05C2.17876 -3.32004e-05 0.000160762 2.17863 -5.13561e-05 4.85662L0.000160646 34.0636C-5.14727e-05 35.3608 0.505002 36.5805 1.42241 37.4978C2.33982 38.4151 3.55943 38.9202 4.85682 38.9202L52.006 38.92C54.6838 38.92 56.8625 36.7414 56.8627 34.0634L56.8625 4.85677C56.8625 3.55938 56.3573 2.33984 55.4401 1.42271ZM27.4484 24.5601C28.0152 25.0417 28.8475 25.0417 29.4142 24.5601L35.2514 19.5985L50.0997 35.5892C50.1149 35.6057 50.1303 35.6216 50.146 35.6374C50.2419 35.7333 50.3466 35.8156 50.4572 35.8848L6.40585 35.8847C6.53439 35.804 6.6548 35.7057 6.76298 35.5892L21.6115 19.5987L27.4484 24.5601ZM52.3983 35.8419C52.4675 35.7939 52.5343 35.7408 52.5976 35.6818C53.313 35.0176 53.3548 33.8992 52.6903 33.1839L37.9474 17.3068L53.6538 5.25102C54.2924 4.70814 54.3699 3.75029 53.8272 3.11188C53.284 2.47298 52.3264 2.39535 51.6878 2.9383L28.4314 21.4117L5.09291 3.13969C4.45429 2.59673 3.49644 2.67458 2.95356 3.31327C2.43775 3.91986 2.48216 4.81464 3.0355 5.36806C3.06471 5.39726 3.09525 5.4254 3.12714 5.4527L18.9152 17.3069L4.17217 33.1836C3.52337 33.8827 3.54798 34.9667 4.21693 35.6357C4.23248 35.6512 4.24846 35.6667 4.26508 35.6818C4.32871 35.7409 4.39567 35.7942 4.46511 35.8423C4.12826 35.7688 3.81864 35.6012 3.56891 35.3514C3.22506 35.0075 3.03578 34.5501 3.03564 34.0635L3.0355 4.89509C3.03571 3.89085 3.85286 3.11188 4.85696 3.11188H52.006C52.4926 3.11188 52.9499 3.26333 53.2939 3.60739C53.6378 3.95116 53.8274 4.38954 53.8272 4.87579L53.8274 34.0732C53.8273 34.9425 53.2145 35.6618 52.3983 35.8419Z" fill="white"/>
<path d="M91.2319 7.14185H61.1819C60.2055 7.14185 59.4141 7.93319 59.4141 8.90928C59.4141 9.88581 60.2055 10.6771 61.1819 10.6771H91.2319C92.208 10.6771 92.9997 9.88581 92.9997 8.90928C92.9997 7.93326 92.208 7.14185 91.2319 7.14185Z" fill="white"/>
<path d="M85.9291 14.2126H61.1819C60.2055 14.2126 59.4141 15.004 59.4141 15.9804C59.4141 16.9566 60.2055 17.7479 61.1819 17.7479H85.9291C86.9053 17.7479 87.6966 16.9566 87.6966 15.9804C87.6966 15.0041 86.9052 14.2126 85.9291 14.2126Z" fill="white"/>
<path d="M78.8585 21.2124H61.1819C60.2055 21.2124 59.4141 22.0037 59.4141 22.9802C59.4141 23.9564 60.2055 24.7477 61.1819 24.7477H78.8585C79.8346 24.7477 80.626 23.9564 80.626 22.9802C80.626 22.0037 79.8345 21.2124 78.8585 21.2124Z" fill="white"/>
<path d="M71.7879 28.283H61.1819C60.2055 28.283 59.4141 29.0744 59.4141 30.0508C59.4141 31.0269 60.2055 31.8183 61.1819 31.8183H71.7879C72.764 31.8183 73.5554 31.0269 73.5554 30.0508C73.5554 29.0744 72.7639 28.283 71.7879 28.283Z" fill="white"/>
</svg>
