<svg width="18" height="10" viewBox="0 0 18 10" fill="none" xmlns="http://www.w3.org/2000/svg">
<g clip-path="url(#clip0_47_410)">
<path d="M17.63 5.55002C17.74 5.40002 17.8 5.23002 17.81 5.06002C17.81 5.04002 17.82 5.02002 17.82 5.00002C17.82 5.00002 17.82 4.99002 17.82 4.98002C17.82 4.79002 17.75 4.61002 17.63 4.46002C16.65 3.18002 15.37 2.10002 13.95 1.32002C13.2 0.91002 12.42 0.61002 11.62 0.39002C11.62 0.39002 11.61 0.39002 11.6 0.38002C11.59 0.38002 11.57 0.38002 11.56 0.38002C11.32 0.31002 11.07 0.27002 10.82 0.23002C10.62 0.19002 10.42 0.14002 10.22 0.11002C9.94 0.0700195 9.65 0.0600195 9.37 0.0500195C9.22 0.0500195 9.08 0.0200195 8.93 0.0200195C8.93 0.0200195 8.93 0.0200195 8.92 0.0200195C8.91 0.0200195 8.92 0.0200195 8.91 0.0200195C8.76 0.0200195 8.62 0.0400195 8.47 0.0500195C8.19 0.0600195 7.9 0.0700195 7.62 0.11002C7.42 0.14002 7.22 0.19002 7.02 0.23002C6.77 0.28002 6.53 0.32002 6.29 0.38002C6.28 0.38002 6.26 0.38002 6.25 0.38002C6.25 0.38002 6.24 0.38002 6.23 0.39002C5.43 0.61002 4.64 0.92002 3.9 1.32002C2.47 2.10002 1.2 3.18002 0.219999 4.46002C0.0999988 4.62002 0.0399988 4.80002 0.0299988 4.98002C0.0299988 4.98002 0.0299988 4.99002 0.0299988 5.00002C0.0299988 5.02002 0.0299988 5.04002 0.0399988 5.06002C0.0399988 5.23002 0.109999 5.41002 0.219999 5.55002C0.289999 5.64002 0.369999 5.72002 0.439999 5.81002C0.569999 5.98002 0.709999 6.14002 0.849999 6.30002C0.969999 6.44002 1.1 6.57002 1.23 6.70002C1.33 6.80002 1.43 6.89002 1.53 6.99002C2.24 7.65002 3.02 8.24002 3.86 8.70002C5.44 9.56002 7.15 10 8.92 10C8.92 10 8.92 10 8.93 10C8.94 10 8.93 10 8.94 10C10.71 10 12.41 9.56002 14 8.70002C14.84 8.24002 15.62 7.66002 16.33 6.99002C16.43 6.90002 16.53 6.80002 16.63 6.70002C16.76 6.57002 16.89 6.44002 17.01 6.30002C17.15 6.14002 17.29 5.98002 17.42 5.81002C17.49 5.72002 17.57 5.64002 17.64 5.55002H17.63ZM10.46 7.70002C10.22 7.80002 9.98 7.87002 9.72 7.92002C9.45 7.97002 9.18 8.00002 8.9 8.00002C8.62 8.00002 8.35 7.97002 8.08 7.92002C7.83 7.87002 7.58 7.80002 7.34 7.70002C6.85 7.50002 6.43 7.21002 6.1 6.86002C5.77 6.51002 5.54 6.10002 5.43 5.66002C5.43 5.64002 5.43 5.62002 5.42 5.61002C5.32 5.19002 5.32 4.76002 5.44 4.34002C5.45 4.29002 5.46 4.24002 5.48 4.20002C5.64 3.70002 5.96 3.25002 6.39 2.89002C6.82 2.53002 7.36 2.26002 7.95 2.12002C8.11 2.08002 8.28 2.08002 8.44 2.06002C8.6 2.04002 8.75 2.02002 8.91 2.02002C9.07 2.02002 9.22 2.05002 9.38 2.06002C9.55 2.08002 9.71 2.08002 9.87 2.12002C10.46 2.26002 11 2.52002 11.43 2.89002C11.86 3.25002 12.18 3.71002 12.34 4.20002C12.36 4.25002 12.36 4.30002 12.38 4.34002C12.49 4.76002 12.5 5.19002 12.4 5.61002C12.4 5.63002 12.4 5.65002 12.39 5.66002C12.27 6.10002 12.04 6.51002 11.72 6.86002C11.39 7.22002 10.96 7.51002 10.48 7.70002H10.46Z" fill="#BDBDBD"/>
<path d="M8.93 6.97003C10.2389 6.97003 11.3 6.08803 11.3 5.00003C11.3 3.91203 10.2389 3.03003 8.93 3.03003C7.62108 3.03003 6.56 3.91203 6.56 5.00003C6.56 6.08803 7.62108 6.97003 8.93 6.97003Z" fill="#BDBDBD"/>
</g>
<defs>
<clipPath id="clip0_47_410">
<rect width="17.81" height="10" fill="white"/>
</clipPath>
</defs>
</svg>
