<svg width="40" height="40" viewBox="0 0 40 40" fill="none" xmlns="http://www.w3.org/2000/svg">
<path d="M20 7.5C26.9035 7.5 32.5 13.0964 32.5 20C32.5 26.9035 26.9035 32.5 20 32.5C13.0964 32.5 7.5 26.9035 7.5 20C7.5 19.3727 7.5462 18.7563 7.63538 18.1538C7.74742 17.397 7.19348 16.6667 6.42847 16.6667C5.81038 16.6667 5.26833 17.0937 5.17452 17.7047C5.0596 18.453 5 19.2195 5 20C5 28.2843 11.7157 35 20 35C28.2843 35 35 28.2843 35 20C35 11.7157 28.2843 5 20 5C16.1582 5 12.6538 6.44427 10 8.81947V7.08333C10 6.39298 9.44035 5.83333 8.75 5.83333C8.05965 5.83333 7.5 6.39298 7.5 7.08333V12.0833C7.5 12.7737 8.05965 13.3333 8.75 13.3333H13.75C14.4403 13.3333 15 12.7737 15 12.0833C15 11.393 14.4403 10.8333 13.75 10.8333H11.5015C13.7318 8.76472 16.7182 7.5 20 7.5ZM20.8333 12.9167C20.8333 12.2263 20.2737 11.6667 19.5833 11.6667C18.893 11.6667 18.3333 12.2263 18.3333 12.9167V20.4167C18.3333 21.107 18.893 21.6667 19.5833 21.6667H24.5833C25.2737 21.6667 25.8333 21.107 25.8333 20.4167C25.8333 19.7263 25.2737 19.1667 24.5833 19.1667H20.8333V12.9167Z" fill="white"/>
</svg>
