<svg width="20" height="20" viewBox="0 0 20 20" fill="none" xmlns="http://www.w3.org/2000/svg">
<path d="M10 6.10352e-05C15.5228 6.175e-05 20 4.47721 20 10.0001C19.9999 15.5228 15.5227 20.0001 10 20.0001C4.47721 20.0001 9.30778e-05 15.5228 0 10.0001C0 4.47721 4.47715 6.10352e-05 10 6.10352e-05ZM7.19336 4.50494C6.32773 4.50504 5.6262 5.20673 5.62598 6.07233V6.31158C5.62607 7.46273 6.22982 8.52971 7.2168 9.12213L8.24902 9.74225C8.51646 9.90293 8.52758 10.2865 8.26953 10.462L7.06055 11.2842C6.16302 11.8945 5.62598 12.9098 5.62598 13.9952V14.3389C5.62612 15.2046 6.32768 15.9072 7.19336 15.9073H13.1797C14.0453 15.9071 14.7469 15.2045 14.7471 14.3389V13.9952C14.7471 12.9099 14.2098 11.8945 13.3125 11.2842L12.1035 10.462C11.8454 10.2864 11.8563 9.90284 12.124 9.74225L13.1562 9.12213C14.1432 8.52971 14.747 7.46273 14.7471 6.31158V6.07233C14.7468 5.20679 14.0452 4.50514 13.1797 4.50494H7.19336ZM13.1797 5.36041C13.573 5.36061 13.8924 5.67907 13.8926 6.07233V6.31158C13.8925 7.16255 13.4455 7.95188 12.7158 8.38971L11.6836 9.00885C10.8808 9.49074 10.8479 10.6423 11.6221 11.169L12.832 11.9913C13.4952 12.4424 13.8926 13.1931 13.8926 13.9952V14.3389C13.8924 14.7323 13.573 15.0516 13.1797 15.0518H7.19336C6.79996 15.0517 6.48061 14.7323 6.48047 14.3389V13.9952C6.48047 13.193 6.87774 12.4424 7.54102 11.9913L8.75098 11.169C9.52502 10.6424 9.49198 9.49082 8.68945 9.00885L7.65723 8.38971C6.92751 7.95188 6.48056 7.16256 6.48047 6.31158V6.07233C6.48069 5.67901 6.80001 5.36051 7.19336 5.36041H13.1797Z" fill="#FDB62F"/>
</svg>
