<svg width="16" height="16" viewBox="0 0 16 16" fill="none" xmlns="http://www.w3.org/2000/svg">
<path d="M8 1.5C4.41015 1.5 1.5 4.41015 1.5 8C1.5 11.5899 4.41015 14.5 8 14.5C11.5899 14.5 14.5 11.5899 14.5 8C14.5 4.41015 11.5899 1.5 8 1.5ZM8 9.83105C8.27614 9.83105 8.5 10.0549 8.5 10.3311V10.6644C8.5 10.9405 8.27614 11.1644 8 11.1644C7.72386 11.1644 7.5 10.9405 7.5 10.6644V10.3311C7.5 10.0549 7.72386 9.83105 8 9.83105ZM9.2483 5.28888C9.61042 5.60981 9.83333 6.08079 9.83333 6.66012C9.83333 7.08643 9.724 7.41894 9.53371 7.68896C9.36269 7.93166 9.14124 8.09778 8.98456 8.21532L8.96699 8.22851C8.79101 8.36071 8.68953 8.44172 8.61705 8.54458C8.55733 8.62932 8.5 8.75592 8.5 8.9974C8.5 9.27355 8.27614 9.4974 8 9.4974C7.72386 9.4974 7.5 9.27355 7.5 8.9974C7.5 8.57109 7.60933 8.23857 7.79962 7.96855C7.97064 7.72585 8.19209 7.55972 8.34878 7.44218L8.36634 7.429C8.54232 7.29679 8.64381 7.21578 8.71629 7.11293C8.776 7.02819 8.83333 6.9016 8.83333 6.66012C8.83333 6.35318 8.72292 6.15946 8.58503 6.03727C8.43784 5.90681 8.2272 5.83073 8 5.83073C7.77281 5.83073 7.56216 5.90682 7.41497 6.03727C7.27708 6.15948 7.16667 6.3532 7.16667 6.66014C7.16667 6.93628 6.94281 7.16014 6.66667 7.16014C6.39052 7.16014 6.16667 6.93628 6.16667 6.66014C6.16667 6.08081 6.38958 5.60983 6.7517 5.28889C7.1045 4.97621 7.56053 4.83073 8 4.83073C8.43947 4.83073 8.89549 4.9762 9.2483 5.28888Z" fill="black"/>
</svg>
