<svg width="25" height="24" viewBox="0 0 25 24" fill="none" xmlns="http://www.w3.org/2000/svg">
<path d="M7.5 7V5C7.5 3.34315 8.84315 2 10.5 2C11.2684 2 11.9692 2.28886 12.5 2.7639C13.0308 2.28885 13.7317 2 14.5 2C16.1569 2 17.5 3.34315 17.5 5V7H19C19.8284 7 20.5 7.67157 20.5 8.5V18.505C20.5 20.4352 18.9352 22 17.005 22H8.5C6.29086 22 4.5 20.2091 4.5 18V8.5C4.5 7.67157 5.17157 7 6 7H7.5ZM14.135 20.5C13.741 19.9343 13.51 19.2466 13.51 18.505V8.5H6V18C6 19.3807 7.11929 20.5 8.5 20.5H14.135ZM12 7V5C12 4.17157 11.3284 3.5 10.5 3.5C9.67157 3.5 9 4.17157 9 5V7H12ZM13.5 7H16V5C16 4.17157 15.3284 3.5 14.5 3.5C14.035 3.5 13.6195 3.71156 13.3444 4.04368C13.4453 4.34403 13.5 4.66563 13.5 5V7ZM15.01 18.505C15.01 19.6068 15.9032 20.5 17.005 20.5C18.1068 20.5 19 19.6068 19 18.505V8.5H15.01V18.505Z" fill="white"/>
</svg>
