<svg width="40" height="40" viewBox="0 0 40 40" fill="none" xmlns="http://www.w3.org/2000/svg">
<path d="M4.16663 7.08334C4.16663 6.39299 4.72628 5.83334 5.41663 5.83334H6.34706C7.93118 5.83334 8.87966 6.89833 9.42204 7.88833C9.78356 8.54824 10.0451 9.31364 10.2497 10.0066C10.3051 10.0022 10.3612 10 10.418 10H31.2468C32.6305 10 33.6296 11.324 33.2503 12.6547L30.204 23.3365C29.6426 25.3053 27.8436 26.663 25.7965 26.663H15.8829C13.8188 26.663 12.0093 25.2832 11.463 23.2927L10.1955 18.6742L8.09786 11.593L8.09446 11.5806C7.83496 10.6342 7.59141 9.75009 7.22951 9.08951C6.87806 8.44801 6.59791 8.33334 6.34706 8.33334H5.41663C4.72628 8.33334 4.16663 7.77369 4.16663 7.08334ZM12.6213 18.0672L13.8739 22.631C14.1222 23.5358 14.9447 24.163 15.8829 24.163H25.7965C26.727 24.163 27.5446 23.5458 27.8 22.651L30.6946 12.5H10.9758L12.5984 17.978C12.6072 18.0077 12.6148 18.0373 12.6213 18.0672ZM18.3333 31.6667C18.3333 33.5077 16.841 35 15 35C13.159 35 11.6666 33.5077 11.6666 31.6667C11.6666 29.8257 13.159 28.3333 15 28.3333C16.841 28.3333 18.3333 29.8257 18.3333 31.6667ZM15.8333 31.6667C15.8333 31.2065 15.4602 30.8333 15 30.8333C14.5397 30.8333 14.1666 31.2065 14.1666 31.6667C14.1666 32.1268 14.5397 32.5 15 32.5C15.4602 32.5 15.8333 32.1268 15.8333 31.6667ZM30 31.6667C30 33.5077 28.5076 35 26.6666 35C24.8256 35 23.3333 33.5077 23.3333 31.6667C23.3333 29.8257 24.8256 28.3333 26.6666 28.3333C28.5076 28.3333 30 29.8257 30 31.6667ZM27.5 31.6667C27.5 31.2065 27.1268 30.8333 26.6666 30.8333C26.2065 30.8333 25.8333 31.2065 25.8333 31.6667C25.8333 32.1268 26.2065 32.5 26.6666 32.5C27.1268 32.5 27.5 32.1268 27.5 31.6667Z" fill="white"/>
</svg>
