<svg width="20" height="20" viewBox="0 0 20 20" fill="none" xmlns="http://www.w3.org/2000/svg">
<path d="M10 20C4.4772 20 3.91405e-07 15.5228 8.74228e-07 10C1.35705e-06 4.4772 4.4772 -1.35705e-06 10 -8.74228e-07C15.5229 -3.91405e-07 20 4.4772 20 10C20 15.5229 15.5229 20 10 20ZM10 18.5C14.6944 18.5 18.5 14.6944 18.5 10C18.5 5.3056 14.6944 1.5 10 1.5C5.3056 1.5 1.5 5.3056 1.5 10C1.5 14.6944 5.3056 18.5 10 18.5ZM14.5303 12.0303C14.2374 12.3232 13.7626 12.3232 13.4697 12.0303L10 8.5607L6.5303 12.0303C6.2374 12.3232 5.7626 12.3232 5.4697 12.0303C5.1768 11.7374 5.1768 11.2626 5.4697 10.9697L9.4697 6.9697C9.7626 6.6768 10.2374 6.6768 10.5303 6.9697L14.5303 10.9697C14.8232 11.2626 14.8232 11.7374 14.5303 12.0303Z" fill="white"/>
</svg>
