<svg width="25" height="25" viewBox="0 0 25 25" fill="none" xmlns="http://www.w3.org/2000/svg">
<g clip-path="url(#clip0_53_472)">
<path fill-rule="evenodd" clip-rule="evenodd" d="M12.5 0C19.4036 0 25 5.59644 25 12.5C25 19.4036 19.4036 25 12.5 25C5.59644 25 0 19.4036 0 12.5C0 5.59644 5.59644 0 12.5 0Z" fill="url(#paint0_radial_53_472)"/>
<path d="M7.94393 9.65375C10.4602 7.19875 14.5398 7.19875 17.0561 9.65375L17.3589 9.94921C17.4847 10.072 17.4847 10.271 17.3589 10.3937L16.323 11.4045C16.2601 11.4658 16.1581 11.4658 16.0952 11.4045L15.6784 10.9979C13.923 9.28519 11.077 9.28519 9.32158 10.9979L8.87529 11.4333C8.81238 11.4947 8.71039 11.4947 8.64748 11.4333L7.61154 10.4226C7.48573 10.2998 7.48573 10.1008 7.61154 9.97805L7.94393 9.65375ZM19.1985 11.744L20.1205 12.6436C20.2463 12.7663 20.2463 12.9653 20.1205 13.0881L15.9632 17.1443C15.8374 17.267 15.6334 17.267 15.5076 17.1443C15.5076 17.1443 15.5076 17.1443 15.5076 17.1443L12.557 14.2655C12.5255 14.2348 12.4745 14.2348 12.4431 14.2655C12.4431 14.2655 12.4431 14.2655 12.4431 14.2655L9.49254 17.1443C9.36673 17.267 9.16275 17.267 9.03693 17.1443C9.03693 17.1443 9.03693 17.1443 9.03693 17.1443L4.87952 13.088C4.7537 12.9653 4.7537 12.7663 4.87952 12.6435L5.8015 11.744C5.92732 11.6212 6.1313 11.6212 6.25711 11.744L9.20775 14.6228C9.23921 14.6535 9.2902 14.6535 9.32165 14.6228C9.32165 14.6228 9.32165 14.6228 9.32165 14.6228L12.2721 11.744C12.398 11.6212 12.6019 11.6212 12.7278 11.744C12.7278 11.744 12.7278 11.744 12.7278 11.744L15.6784 14.6228C15.7099 14.6535 15.7608 14.6535 15.7923 14.6228L18.7429 11.744C18.8687 11.6213 19.0727 11.6213 19.1985 11.744Z" fill="white"/>
</g>
<defs>
<radialGradient id="paint0_radial_53_472" cx="0" cy="0" r="1" gradientUnits="userSpaceOnUse" gradientTransform="translate(0 6400) scale(12800)">
<stop stop-color="#5D9DF6"/>
<stop offset="1" stop-color="#006FFF"/>
</radialGradient>
<clipPath id="clip0_53_472">
<rect width="25" height="25" fill="white"/>
</clipPath>
</defs>
</svg>
