<svg width="20" height="20" viewBox="0 0 20 20" fill="none" xmlns="http://www.w3.org/2000/svg">
<path d="M10 1.875C5.51269 1.875 1.875 5.51269 1.875 10C1.875 14.4873 5.51269 18.125 10 18.125C14.4873 18.125 18.125 14.4873 18.125 10C18.125 5.51269 14.4873 1.875 10 1.875ZM10 6.04167C10.3452 6.04167 10.625 6.32149 10.625 6.66667V7.08333C10.625 7.42851 10.3452 7.70833 10 7.70833C9.65482 7.70833 9.375 7.42851 9.375 7.08333V6.66667C9.375 6.32149 9.65482 6.04167 10 6.04167ZM8.95833 13.3333C8.95833 13.0612 9.13225 12.8297 9.375 12.7439V9.7561C9.13225 9.6703 8.95833 9.4388 8.95833 9.16667C8.95833 8.82149 9.23816 8.54167 9.58333 8.54167H10C10.3452 8.54167 10.625 8.82149 10.625 9.16667V12.7439C10.8677 12.8297 11.0417 13.0612 11.0417 13.3333C11.0417 13.6785 10.7618 13.9583 10.4167 13.9583H9.58333C9.23816 13.9583 8.95833 13.6785 8.95833 13.3333Z" fill="#8E8E8E"/>
</svg>
