<svg width="124" height="28" viewBox="0 0 124 28" fill="none" xmlns="http://www.w3.org/2000/svg">
<g clip-path="url(#clip0_706_439)">
<path d="M120.693 0H3.08347C1.38053 0 0 1.37529 0 3.07176V24.9282C0 26.6247 1.38053 28 3.08347 28H120.693C122.52 28 124 26.5259 124 24.7059V3.29412C124 1.47412 122.52 0 120.693 0ZM123.173 24.7059C123.173 26.0729 122.066 27.1765 120.693 27.1765H3.08347C1.8352 27.1765 0.834933 26.1718 0.826667 24.9282V3.07176C0.826667 1.82824 1.8352 0.831765 3.08347 0.823529H120.693C122.066 0.823529 123.173 1.92706 123.173 3.29412V24.7059Z" fill="#635BFF"/>
<path d="M14.1113 9.25647H10.5566V18.1176H12.1438V14.6918H14.1113C16.0953 14.6918 17.3353 13.7365 17.3353 11.9741C17.3353 10.2118 16.0953 9.25647 14.1113 9.25647ZM14.0286 13.3741H12.1438V10.6565H14.0534C15.1942 10.6565 15.7977 11.1424 15.7977 12.0153C15.7977 12.8882 15.1694 13.3329 14.0534 13.3329L14.0286 13.3741Z" fill="#635BFF"/>
<path d="M20.7491 11.5294C19.0296 11.5129 17.616 12.88 17.5995 14.6012C17.5995 14.7 17.5995 14.7988 17.6078 14.8976C17.4507 16.6271 18.732 18.1506 20.468 18.2988C22.204 18.4553 23.7334 17.1788 23.8822 15.4494C23.8987 15.2682 23.8987 15.0788 23.8822 14.8894C24.031 13.1847 22.7662 11.6859 21.055 11.5294C20.9558 11.5212 20.8483 11.5129 20.7491 11.5212V11.5294ZM20.7491 17.0223C19.7406 17.0223 19.0958 16.1988 19.0958 14.8976C19.0958 13.5965 19.724 12.7729 20.7491 12.7729C21.7742 12.7729 22.4024 13.5965 22.4024 14.8976C22.4024 16.1988 21.7494 17.0141 20.7491 17.0141V17.0223Z" fill="#635BFF"/>
<path d="M30.4049 15.9353L29.2393 11.6365H28.0158L26.8585 15.9353L25.6846 11.6365H24.1553L26.1145 18.1259H27.4041L28.5945 13.8765L29.7849 18.1259H31.0745L33.0337 11.6365H31.5622L30.4049 15.9353Z" fill="#635BFF"/>
<path d="M36.3731 11.5294C34.6289 11.5624 33.2318 13.0035 33.2649 14.7412C33.2649 14.7906 33.2649 14.8482 33.2649 14.8977C33.1243 16.6188 34.4139 18.1177 36.1417 18.2577C36.2409 18.2577 36.3318 18.2659 36.431 18.2659C37.6627 18.3318 38.7953 17.6071 39.2499 16.4706L38.0182 15.96C37.8198 16.6188 37.1915 17.0471 36.5054 16.9977C35.5382 17.0224 34.7363 16.2565 34.7115 15.2929C34.7115 15.2682 34.7115 15.2353 34.7115 15.2106H39.2747V14.7165C39.2913 12.9377 38.2827 11.5294 36.3649 11.5294H36.3731ZM34.7777 14.1071C34.8934 13.3247 35.5795 12.7482 36.3731 12.7647C37.0841 12.7071 37.7041 13.2259 37.7702 13.9341C37.7702 13.9918 37.7702 14.0412 37.7702 14.0988H34.7777V14.1071Z" fill="#635BFF"/>
<path d="M41.9035 12.6V11.6365H40.4155V18.1176H41.9035V14.7165C41.8539 13.86 42.507 13.1188 43.3667 13.0694C43.4329 13.0694 43.4907 13.0694 43.5569 13.0694C43.7387 13.0529 43.9206 13.0529 44.1025 13.0694V11.587H43.6809C42.9369 11.5459 42.2425 11.9412 41.9035 12.6Z" fill="#635BFF"/>
<path d="M47.5167 11.5294C45.7724 11.5624 44.3754 13.0035 44.4084 14.7412C44.4084 14.7906 44.4084 14.8482 44.4084 14.8977C44.2679 16.6188 45.5575 18.1177 47.2852 18.2577C47.3844 18.2577 47.4754 18.2659 47.5746 18.2659C48.7898 18.3153 49.9058 17.5988 50.3604 16.4706L49.0874 15.9847C48.889 16.6435 48.2607 17.0718 47.5746 17.0224C46.6074 17.0141 45.8303 16.2235 45.8386 15.26C45.8386 15.2518 45.8386 15.2435 45.8386 15.2353H50.4183V14.7412C50.4183 12.9377 49.3932 11.5294 47.5084 11.5294H47.5167ZM45.9212 14.1071C46.0452 13.3329 46.7231 12.7647 47.5084 12.7729C48.2194 12.7153 48.8394 13.2341 48.9055 13.9424C48.9055 14 48.9055 14.0494 48.9055 14.1071H45.9212Z" fill="#635BFF"/>
<path d="M55.8496 12.3529C55.3867 11.8094 54.7005 11.5047 53.9813 11.5294C52.1544 11.5294 51.1128 13.0529 51.1128 14.8976C51.1128 16.7424 52.1544 18.2659 53.9813 18.2659C54.7005 18.2906 55.3867 17.9859 55.8496 17.4424V18.1176H57.3376V9.25647H55.8496V12.3529ZM55.8496 15.1118C55.9736 16.0094 55.3453 16.8494 54.4443 16.9729C54.3616 16.9812 54.2789 16.9894 54.1963 16.9894C53.1133 16.9894 52.5429 16.1659 52.5429 14.9141C52.5429 13.6624 53.1216 12.8388 54.1963 12.8388C55.1139 12.8388 55.8496 13.5059 55.8496 14.7247V15.1118Z" fill="#635BFF"/>
<path d="M65.5631 11.5294C64.8357 11.4965 64.133 11.8012 63.6535 12.3529V9.25647H62.1655V18.1176H63.6535V17.4341C64.1247 17.9776 64.8109 18.2824 65.5301 18.2576C67.3487 18.2576 68.3903 16.7259 68.3903 14.8894C68.3903 13.0529 67.3818 11.5294 65.5631 11.5294ZM65.3069 16.9647C64.3975 16.9729 63.6453 16.24 63.637 15.3341C63.637 15.2518 63.637 15.1694 63.6535 15.0871V14.7C63.6535 13.4812 64.3479 12.8141 65.3069 12.8141C66.3815 12.8141 66.9602 13.6376 66.9602 14.8894C66.9602 16.1412 66.3402 16.9647 65.3069 16.9647Z" fill="#635BFF"/>
<path d="M71.8619 16.1906L70.2665 11.6365H68.6958L71.0931 17.8871L70.8451 18.4965C70.7542 18.9329 70.3409 19.2212 69.9027 19.1471C69.7374 19.1553 69.5721 19.1553 69.4067 19.1471V20.3906C69.6051 20.4235 69.8118 20.4318 70.0102 20.4318C71.0766 20.5059 72.0438 19.8141 72.3083 18.7847L74.9867 11.6859H73.4243L71.8619 16.1906Z" fill="#635BFF"/>
<path d="M103.333 10.2365C102.672 10.2365 102.044 10.4917 101.572 10.9529L101.457 10.3847H99.481V21.0247L101.729 20.5388V17.9612C102.176 18.3317 102.738 18.5376 103.325 18.5376C104.929 18.5376 106.4 17.2282 106.4 14.3294C106.4 11.6776 104.912 10.2365 103.333 10.2365ZM102.796 16.52C102.399 16.5447 102.011 16.3882 101.738 16.0917V12.707C102.011 12.4023 102.407 12.2376 102.812 12.2541C103.639 12.2541 104.201 13.1847 104.201 14.3788C104.201 15.5729 103.631 16.52 102.796 16.52Z" fill="#635BFF"/>
<path d="M110.55 10.2365C108.384 10.2365 107.07 12.0976 107.07 14.4447C107.07 17.22 108.624 18.6282 110.839 18.6282C111.707 18.6447 112.559 18.4388 113.319 18.027V16.1741C112.625 16.52 111.864 16.6929 111.087 16.6847C110.195 16.6847 109.434 16.3635 109.318 15.2847H113.766V14.4612C113.84 12.0976 112.716 10.2365 110.55 10.2365ZM109.335 13.5882C109.335 12.5506 109.971 12.1141 110.534 12.1141C111.096 12.1141 111.691 12.5506 111.691 13.5882H109.335Z" fill="#635BFF"/>
<path d="M93.4134 11.0024L93.2728 10.3271H91.355V18.3236H93.5704V12.9047C93.9838 12.4106 94.6534 12.2212 95.2651 12.4271V10.3271C94.5624 10.0553 93.7688 10.3436 93.4134 11.0024Z" fill="#635BFF"/>
<path d="M82.2201 12.7318C82.2201 12.3694 82.5177 12.2294 82.9889 12.2294C83.766 12.2459 84.5348 12.4518 85.2209 12.8224V10.6565C84.51 10.3683 83.7494 10.2283 82.9889 10.2365C81.162 10.2365 79.9468 11.2083 79.9468 12.8388C79.9468 15.3918 83.3692 14.98 83.3692 16.0753C83.3692 16.5035 83.0054 16.6435 82.5425 16.6435C81.6662 16.5941 80.823 16.3388 80.0625 15.9024V18.1177C80.8396 18.4635 81.691 18.6447 82.5425 18.6447C84.4108 18.6447 85.7004 17.6977 85.7004 16.0424C85.659 13.2753 82.2201 13.7694 82.2201 12.7318Z" fill="#635BFF"/>
<path d="M88.6846 8.43292L86.494 8.91057V16.2647C86.4444 17.5247 87.4364 18.5788 88.7012 18.6282C88.7425 18.6282 88.7838 18.6282 88.8252 18.6282C89.3708 18.6529 89.9081 18.5459 90.4041 18.3235V16.4706C90.1148 16.5941 88.7012 17.0141 88.7012 15.647V12.3529H90.4041V10.4259H88.7012L88.6846 8.43292Z" fill="#635BFF"/>
<path d="M96.1001 9.63532L98.3569 9.16591V7.38708L96.1001 7.8565V9.63532Z" fill="#635BFF"/>
<path d="M98.3569 10.3847H96.1001V18.3235H98.3569V10.3847Z" fill="#635BFF"/>
</g>
<defs>
<clipPath id="clip0_706_439">
<rect width="124" height="28" fill="white"/>
</clipPath>
</defs>
</svg>
