<svg width="27" height="27" viewBox="0 0 27 27" fill="none" xmlns="http://www.w3.org/2000/svg">
<path d="M19.5299 15.4004C20.8963 15.4004 22.0037 16.5079 22.0037 17.8742V18.5071C22.0037 19.4909 21.6522 20.4422 21.0125 21.1895C19.2862 23.2063 16.6603 24.2016 13.2004 24.2016C9.73995 24.2016 7.11534 23.206 5.39241 21.1883C4.75466 20.4415 4.4043 19.4916 4.4043 18.5096V17.8742C4.4043 16.5079 5.51183 15.4004 6.87805 15.4004H19.5299ZM19.5299 17.0504H6.87805C6.4231 17.0504 6.0543 17.4192 6.0543 17.8742V18.5096C6.0543 19.0988 6.26452 19.6687 6.64715 20.1168C8.02579 21.7312 10.1883 22.5516 13.2004 22.5516C16.2126 22.5516 18.3769 21.7312 19.759 20.1166C20.1429 19.6681 20.3537 19.0973 20.3537 18.5071V17.8742C20.3537 17.4192 19.9849 17.0504 19.5299 17.0504ZM13.2004 2.20557C16.238 2.20557 18.7004 4.668 18.7004 7.70557C18.7004 10.7431 16.238 13.2056 13.2004 13.2056C10.1628 13.2056 7.70039 10.7431 7.70039 7.70557C7.70039 4.668 10.1628 2.20557 13.2004 2.20557ZM13.2004 3.85557C11.0741 3.85557 9.35039 5.57928 9.35039 7.70557C9.35039 9.83187 11.0741 11.5556 13.2004 11.5556C15.3267 11.5556 17.0504 9.83187 17.0504 7.70557C17.0504 5.57928 15.3267 3.85557 13.2004 3.85557Z" fill="#CEFAFE"/>
</svg>
