<svg width="48" height="48" viewBox="0 0 48 48" fill="none" xmlns="http://www.w3.org/2000/svg">
<g clip-path="url(#clip0_3001_1226)">
<path d="M14.1719 41H14.168C13.4629 40.999 12.7568 40.7647 12.1807 40.339C11.607 39.9156 11.1817 39.3176 10.9821 38.6556C10.7617 37.923 10.8164 37.1551 11.1402 36.433L15.4464 25.8155H12.3035C11.1029 25.8155 9.99667 25.1855 9.41574 24.1718C8.8469 23.1786 8.86285 22.0011 9.45924 21.0217L17.6468 7.57023C18.2365 6.60184 19.3268 6 20.4916 6H31.3122C32.6011 6 33.7437 6.69825 34.2946 7.82271C34.8272 8.90995 34.6847 10.1762 33.922 11.1278L28.685 17.6632H36.3893C37.049 17.6632 37.642 18.0603 37.886 18.6654C38.1301 19.2706 37.9759 19.9617 37.4965 20.4094L16.3777 40.1428C16.3613 40.1581 16.3448 40.1729 16.3279 40.1877C15.7093 40.7189 14.964 41 14.1719 41ZM14.0738 37.755C14.0907 37.7822 14.1405 37.8156 14.169 37.818C14.1738 37.8156 14.184 37.8104 14.198 37.7994L32.3431 20.8447H25.356C24.7383 20.8447 24.1748 20.4958 23.9056 19.9469C23.6364 19.3976 23.7094 18.7451 24.0926 18.2669L31.3673 9.18867C31.3552 9.18486 31.3373 9.18199 31.3122 9.18199H20.4916C20.4437 9.18199 20.4142 9.20251 20.4084 9.21015L12.2431 22.624C12.2556 22.6292 12.2745 22.6335 12.303 22.6335H17.8266C18.3612 22.6335 18.8614 22.8955 19.161 23.3327C19.4607 23.7699 19.5211 24.3254 19.3225 24.8161L14.1187 37.6467C14.1091 37.6701 14.0989 37.6934 14.0883 37.7168C14.0796 37.735 14.0757 37.7478 14.0738 37.7555V37.755Z" fill="white"/>
</g>
<defs>
<clipPath id="clip0_3001_1226">
<rect width="29" height="35" fill="white" transform="translate(9 6)"/>
</clipPath>
</defs>
</svg>
