<svg width="21" height="32" viewBox="0 0 21 32" fill="none" xmlns="http://www.w3.org/2000/svg">
<path d="M14.0366 31.11H13.975L11.2466 28.2928C12.1618 27.2814 13.0375 26.2527 13.7579 25.0883C17.5643 18.9457 17.3571 11.0862 13.2004 5.18048C12.6083 4.33927 11.9299 3.57946 11.2466 2.81719L13.9774 0H14.0391C19.2788 5.25942 21.5311 12.8797 19.9745 20.1841C19.0913 24.326 16.9895 28.1053 14.0391 31.11H14.0366Z" fill="#00A4FF"/>
<path d="M8.36278 5.65414C8.57494 5.61714 9.9786 7.49198 10.171 7.7806C13.822 13.2842 13.1116 20.8206 8.40719 25.4534L5.6048 22.693C6.0291 22.1503 6.51261 21.6569 6.89005 21.0772C9.04611 17.7814 9.06092 13.3657 6.91472 10.0649C6.52988 9.47289 6.04144 8.96471 5.6048 8.41213L8.36278 5.65167V5.65414Z" fill="#00A4FF"/>
<path d="M2.76539 11.2416C5.14347 13.5531 5.14347 17.5569 2.76539 19.8684L0.00740038 17.0931C-0.0320699 16.9402 0.160347 16.8563 0.234354 16.7305C0.764736 15.8424 0.663594 14.8532 0 14.0662L2.76786 11.2416H2.76539Z" fill="#00A4FF"/>
</svg>
