<svg width="36" height="36" viewBox="0 0 36 36" fill="none" xmlns="http://www.w3.org/2000/svg">
<path d="M3.375 18C3.375 9.92284 9.92284 3.375 18 3.375C26.0772 3.375 32.625 9.92284 32.625 18C32.625 26.0772 26.0772 32.625 18 32.625C9.92284 32.625 3.375 26.0772 3.375 18ZM12.7045 12.7045C12.2652 13.1438 12.2652 13.8562 12.7045 14.2955L16.409 18L12.7045 21.7045C12.2652 22.1438 12.2652 22.8562 12.7045 23.2955C13.1439 23.7348 13.8562 23.7348 14.2955 23.2955L18 19.591L21.7045 23.2955C22.1438 23.7348 22.8561 23.7348 23.2955 23.2955C23.7348 22.8561 23.7348 22.1438 23.2955 21.7045L19.591 18L23.2955 14.2955C23.7348 13.8562 23.7348 13.1439 23.2955 12.7045C22.8562 12.2652 22.1438 12.2652 21.7045 12.7045L18 16.409L14.2955 12.7045C13.8562 12.2652 13.1438 12.2652 12.7045 12.7045Z" fill="#5D5D5D"/>
</svg>
