<svg width="24" height="24" viewBox="0 0 24 24" fill="none" xmlns="http://www.w3.org/2000/svg">
<g opacity="0.7">
<path d="M2.25 12C2.25 6.61522 6.61522 2.25 12 2.25C17.3848 2.25 21.75 6.61522 21.75 12C21.75 17.3848 17.3848 21.75 12 21.75C6.61522 21.75 2.25 17.3848 2.25 12ZM8.46967 8.46967C8.17678 8.76256 8.17678 9.23744 8.46967 9.53033L10.9394 12L8.4697 14.4697C8.1768 14.7626 8.1768 15.2374 8.4697 15.5303C8.76259 15.8232 9.23746 15.8232 9.53036 15.5303L12 13.0607L14.4696 15.5303C14.7625 15.8232 15.2374 15.8232 15.5303 15.5303C15.8232 15.2374 15.8232 14.7625 15.5303 14.4696L13.0607 12L15.5303 9.53035C15.8232 9.23746 15.8232 8.76259 15.5303 8.46969C15.2374 8.1768 14.7626 8.1768 14.4697 8.46969L12 10.9394L9.53033 8.46967C9.23744 8.17678 8.76256 8.17678 8.46967 8.46967Z" fill="#FF0000"/>
</g>
</svg>
